<?xml version="1.0" encoding="UTF-8"?>
<!DOCTYPE svg PUBLIC "-//W3C//DTD SVG 1.1//EN" "http://www.w3.org/Graphics/SVG/1.1/DTD/svg11.dtd">
<!-- Creator: CorelDRAW 2021.5 -->
<svg xmlns="http://www.w3.org/2000/svg" xml:space="preserve" width="144.296mm" height="139.187mm" version="1.1" style="shape-rendering:geometricPrecision; text-rendering:geometricPrecision; image-rendering:optimizeQuality; fill-rule:evenodd; clip-rule:evenodd"
viewBox="0 0 247974.79 239194.23"
 xmlns:xlink="http://www.w3.org/1999/xlink"
 xmlns:xodm="http://www.corel.com/coreldraw/odm/2003">
 <defs>
  <style type="text/css">
   <![CDATA[
    .fil0 {fill:none}
    .fil1 {fill:#3E4095}
   ]]>
  </style>
 </defs>
 <g id="Plan_x0020_1">
  <metadata id="CorelCorpID_0Corel-Layer"/>
  <g id="_3024481726432">
   <rect class="fil0" y="0.04" width="247974.82" height="239194.15"/>
   <path class="fil1" d="M73940.43 180742.21c424.99,983.5 704.93,1148.48 2058.6,1086.79 1557.66,-1907.37 -770.92,-2478.78 -1422.41,-2806.15 -549.92,-276.68 -383.4,-440.63 -1280.63,-355.22 -666.09,1054.48 196.08,1036.78 644.44,2074.59zm46982.51 14996.06c-1.03,-0.17 -1808.22,-737.07 -1369.48,861.66l392.51 1296.44c379.28,831.07 1098.47,1439.94 2346.11,981.44 606.98,-223.06 508.16,-403.33 707.34,-1044.85 194.88,-626.74 180.79,-928.17 124.59,-1585.5 -369.82,-241.28 -611.96,-486.17 -1306.24,-502.49 -345.59,-8.08 -570.37,63.93 -894.83,-6.7zm-53350.45 -7774.88c-280.46,384.43 146.25,183.71 -712.67,1245.23 -175.46,216.53 -1291.46,2123.05 -1299.54,2464.17 -36.09,1531.36 1468.64,1198.83 2288.71,774.53 411.24,-212.92 669.53,-570.89 926.45,-979.72 125.79,-200.21 197.8,-369.14 357.11,-585.84 200.21,-272.9 221.34,-223.58 390.96,-541.67 843.1,-1579.83 -257.6,-179.93 1052.59,-1666.44 152.78,-173.74 244.37,-322.05 421.03,-525 893.28,-1027.84 1846.2,-1933.5 2388.21,-3176.49 596.15,-1367.59 37.64,-2337 -1467.61,-1704.93 -274.45,115.31 -447.16,225.3 -639.46,293.01 -1457.3,512.8 -321.53,574.84 -1286.65,495.96 -576.73,-46.92 -726.76,-130.95 -730.54,289.4 -11.69,1252.11 203.47,702.87 -640.14,1204.68 3.44,472.07 -95.55,559.37 -87.13,834.85 20.28,681.05 818.01,635.85 -961.33,1578.28zm29919.09 -60284.47c2933.84,49.49 4517.45,-787.08 5809.94,-866.13 1467.78,-89.71 1492.7,-1006.19 1167.21,-2078.02 -11,-36.6 -42.96,-140.92 -54.65,-177.87l-193.16 -786.05c-386.84,-1916.14 -2653.21,-875.75 -3391.82,-841.04 -1698.4,79.22 -2976.63,20.97 -3956.87,1005.5 -909.95,914.08 169.1,3013.75 619.35,3743.6zm-30057.25 -70289.8c1928.34,269.46 1742.74,-581.72 2882.28,-909.09 648.91,-186.63 980.41,-57.4 1474.65,-428.08 404.71,-303.49 405.74,-692.9 697.54,-1187.66 656.47,-1112.91 1162.23,-356.42 1693.08,-2096.58 188,-616.26 264.82,-1066.16 -106.03,-1540.3l-907.55 -1085.07c-1737.07,-20.97 -1777.97,13.23 -2644.1,988.32 -618.84,697.03 -1388.56,1003.61 -1900.33,1635.33 -341.81,422.07 -352.98,577.08 -795.15,973.88 -1691.19,1518.65 -1187.66,1733.12 -394.4,3649.26zm52124.47 148742.53c60.49,359.34 592.37,872.83 664.2,1346.8 122.7,809.76 -228.05,948.27 -577.93,1301.26l208.28 438.39c144.35,320.16 113.08,220.48 224.44,556.45 -536.35,274.96 -616.6,166.87 -421.21,824.88 376.87,1269.81 10.83,1927.14 919.06,2236.3 1631.73,554.91 2110.16,-768.69 2125.8,-2169.45 27.84,-2453 -298.33,-1672.28 82.32,-4396.29 161.37,-1154.32 -107.58,-3217.91 -198.66,-4320.68 -116.17,-1404.71 -555.08,-1251.25 -1712.15,-1131.12 -1518.99,157.42 -1511.43,-386.84 -1765.94,1275.31l739.13 394.23c2.75,528.1 59.12,2669.53 -88.33,3044.86 -133.7,339.92 -265.34,206.91 -199,599.07zm-43329.65 -11559.04c781.58,-1264.65 283.21,-446.81 883.31,-1134.9 377.38,-432.55 285.1,-1045.2 1421.21,-1509.37 697.03,-284.93 744.63,-498.54 1184.23,-713.18 858.74,116.69 1166.87,687.23 2005.33,773.67 873.86,90.39 1427.57,-564.87 1310.88,-1349.72 -109.81,-738.1 -604.4,-1356.94 -1064.79,-1685.86 -798.76,-570.72 -1120.12,-420.52 -2073.38,-276.85 -147.79,-322.56 -55.34,-358.48 -369.31,-693.59 -992.78,-1058.95 -1812.17,-696.17 -2866.65,-626.74l-125.79 754.43c-239.9,-156.21 -458.5,-296.61 -878.5,-252.62 -109.47,187.66 -182.16,497.51 -252.45,719.02 303.32,221.86 326.17,185.6 706.14,336.14 -25.95,968.21 -593.57,1693.42 -1076.47,2213.27 -1353.33,1457.81 -440.97,258.64 -1136.62,1912.36 -734.15,1744.46 -1934.18,3069.95 -1870.08,4334.77 243.34,189.38 855.65,729.68 1140.4,864.07 643.75,304.18 761.13,-264.31 1040.9,-624.68l1577.76 -2420.86c195.91,-328.41 267.06,-333.56 443.89,-619.35zm123822.25 -69916.71c823.68,574.67 703.21,533.43 1930.23,724.01 1049.32,162.74 456.78,914.25 1958.93,346.11 1246.26,-470.87 1443.89,111.87 2180.1,227.02 519.85,81.29 2102.25,-382.54 4952.4,-45.71 1117.55,131.98 180.79,474.82 2362.61,336.48 1120.47,-70.97 3628.29,1013.92 3836.23,-1180.62 211.2,-2231.49 -1898.78,-1562.64 -3428.43,-1980.93l-3951.54 -80.43c-483.76,4.12 -756.66,154.49 -1247.12,99.33 -367.93,-41.76 -697.72,-179.58 -1102.42,-222.72 -514.35,-54.82 -922.15,47.95 -1422.41,43.13 -1550.1,-15.29 -3620.9,-448.36 -5187.15,-246.78 -972.16,124.94 -950.16,892.94 -881.42,1981.1zm-86367.32 80206.12c220.66,-1101.39 531.54,-425.5 431.17,-1430.66 120.98,-87.99 278.74,-160.17 413.65,-286.82 898.09,-840.87 1080.77,-590.48 1235.78,-774.7 282.01,-809.59 348.17,-1449.39 -166.18,-2114.11 -322.39,-416.57 -709.74,-1089.19 -730.71,-1728.31 -88.68,-2705.28 -640.66,-1616.43 -1858.05,-2028.36 -366.04,-123.9 -294.72,-274.62 -793.09,-261.9l-495.79 1016.84c-207.77,360.54 -253.82,652.69 -276.16,1191.1l746.69 252.28c-59.29,485.14 30.42,332.02 -238.36,585.84 -124.25,117.55 -835.71,735.87 -1105.17,717.13 -403.33,-27.67 -688.26,-954.12 -954.8,-227.87l-115.31 361.57c-176.49,370 -168.76,28.7 -308.82,509.37 327.89,242.83 301.08,172.71 826.09,209.66 367.76,1231.48 1381.51,1194.88 1117.72,3275.65 -205.71,1622.79 -79.91,2615.4 -40.56,4179.76 37.46,1487.03 -979.21,2166.87 101.56,3383.06 363.46,409.01 1516.41,1065.48 2149.51,1158.96 421.03,62.38 796.01,162.57 1053.27,-240.08 149.68,-234.75 -73.21,171.51 76.3,-156.04 204.85,-449.56 288.54,-954.98 -25.09,-1304.69 -376.01,-418.63 -986.94,-461.59 -1575.01,-656.64 -138.86,-854.1 195.05,-1029.56 41.24,-2033 -226.67,-1479.29 23.2,-1086.79 169.62,-1791.2 125.79,-604.57 200.89,-1209.14 320.5,-1806.84zm98132.58 -54730.93c-2929.2,-1782.78 -1185.08,-717.13 -3900.85,-1890.7 -623.99,-269.81 -1307.61,-652.35 -1914.08,-899.64 -1171.34,-477.06 -1047.78,-161.02 -1700.47,-1233.89 -359,-590.31 -915.79,-1044.17 -707.17,-2004.64 177.69,-818.18 807.7,-1511.77 -85.75,-2022.86 -997.77,-570.72 -3361.06,18.22 -3274.45,2200.38 57.91,1465.55 489.26,1080.6 -454.2,2136.8 -653.38,731.23 -229.25,1719.03 372.92,2069.95 677.61,395.09 5528.96,2337.35 6199.7,2454.03 620.04,107.92 545.46,131.81 990.72,388.9 492.52,284.24 2739.3,1035.75 3429.8,803.92 709.06,-238.01 1145.04,-964.77 1043.82,-2002.24zm-106514.1 57350.97c-1048.12,-647.19 -1776.25,31.45 -2522.43,539.1 -391.82,266.54 -656.64,420.18 -1312.6,345.94 -1215.67,-137.65 -1069.43,-119.44 -1350.58,-413.99 -768.86,-805.81 -1427.05,-592.54 -1438.56,-2116.52 -3.78,-506.1 -75.96,-1269.98 -56.54,-1668.5 5.67,-118.23 259.67,-1181.13 307.61,-1301.6l598.73 -1164.29c274.1,-339.41 572.26,-515.72 1032.65,-710.78 881.42,-373.26 1275.13,-987.11 2570.72,-732.43 1395.43,274.45 879.19,1134.04 1567.45,1935.21 336.31,391.48 1778.14,1201.58 2324.28,503.7 595.98,-729.51 192.13,-2363.12 -870.08,-3373.09 -273.59,-260.18 -977.83,-915.97 -1308.99,-1055.34 -685.34,-288.19 -913.39,1.72 -1730.02,-491.32 -472.93,-285.62 -1257.78,-299.19 -1906.51,-436.5 -713.18,-151.23 -997.42,-113.59 -1531.54,61.01 -835.37,273.07 -1447.67,-92.11 -2309.85,499.4 -1067.71,732.43 -514.35,568.83 -252.96,1026.64 124.76,-179.93 244.54,-374.98 475.68,-482.04 683.11,-316.38 810.96,74.07 811.14,74.41 -544.6,888.81 -454.89,-116.17 -1128.03,1148.14l-374.64 823.85c-461.25,1922.67 -516.93,773.67 -709.74,2628.29 -63.24,610.59 155.7,2525.18 263.96,3157.07 282.35,1643.07 858.74,3809.42 2706.14,4086.27 489.95,73.21 838.98,269.29 1333.74,348.17 645.47,102.6 745.83,-148.65 1434.61,-57.74 1643.93,217.56 1413.65,56.02 2001.55,-412.44 618.32,-493.21 1621.41,-1237.33 1374.81,-2760.61zm-60056.94 -68094.92c-34.2,-20.28 -78.88,-98.13 -96.92,-70.46 -17.19,26.47 -70.12,-51.9 -93.49,-67.37 -341.3,-224.95 -88.85,-236.98 -438.91,-184.91 -166.01,24.75 -824.03,526.9 -785.53,950.68 46.74,513.66 28.18,-119.09 99.67,309.16 3.95,23.37 11.69,59.12 13.58,82.32l-12.89 174.09c-15.29,230.45 -481.18,203.64 -749.96,176.32 -619.87,-63.24 -110.67,-58.77 -735.35,-260.87 -94.35,267.06 33.17,23.72 -146.07,358.65 -344.73,643.93 -436.5,320.85 -809.76,221.69 -236.81,527.41 -239.39,717.99 -1052.59,725.9 -179.24,-340.78 -156.56,-427.57 -434.78,-683.97 78.88,776.25 540.64,962.19 -488.57,1256.92 -731.91,209.66 -1400.24,-59.63 -1966.49,286.99 -511.26,313.11 -759.75,556.45 -1380.99,851.69 -520.71,247.64 -1182.16,393.02 -1743.08,611.96 -2285.45,892.42 -1209.83,1389.42 -943.29,2752.19 300.57,1537.72 695.65,2146.25 1178.21,3409.87 178.38,467.09 413.65,1186.8 657.67,1614.2 807.36,1414.33 284.59,996.39 640.14,1721.26 888.47,1811.14 2207.25,1027.84 2350.06,76.47 84.38,-562.12 -218.08,-1348.51 -387.01,-1808.9 -329.44,-897.23 39.01,-1077.85 -585.84,-1781.41 -470.7,-529.82 -560.41,-517.79 -760.96,-1448.88 -77.68,-361.4 -222.2,-1762.16 -170.99,-2074.07 748.07,-509.71 1558,-68.74 4194.54,-1342.67 592.03,-285.96 1491.15,-329.78 2058.43,-635.68 604.4,-325.66 1126.31,-761.13 1927.65,-899.47 1356.42,-234.23 3310.37,-763.53 3902.56,-1645.47 897.58,-1337.17 -1261.21,-2854.96 -1720.57,-3503.01 -458.33,229.59 -1240.59,400.58 -1518.48,826.78zm-8876.28 -32314.34c-725.9,4.81 -818.01,204.16 -1394.57,19.42 -1300.05,-416.91 -779.17,476.37 -1917.51,821.1 -2798.08,847.05 2167.38,2678.3 2495.28,3307.27 497.51,1188.69 -615.91,3113.77 242.83,4340.78 1616.26,73.55 1481.36,-1021.83 2796.36,-1913.39 512.63,-347.48 434.1,-431.52 761.13,-863.55 1181.82,133.18 1061.18,488.57 1945.87,955.66 821.96,433.75 3332.19,1066.68 2090.4,-1044.51 -256.4,-435.47 -331.33,-774.02 -561.61,-1203.82 -383.74,-716.27 -1051.56,-1554.39 -217.39,-2435.64 388.56,-410.38 404.54,-406.6 752.88,-913.9 324.97,-473.11 1470.53,-734.49 1410.04,-2082.66 -35.06,-780.03 -203.3,-365.7 -1320.33,-516.24l-219.45 -709.06c-856.16,80.77 -819.56,572.26 -1644.27,1078.02 -1148.14,704.25 -1879.19,-528.44 -2113.08,-865.61l-838.63 -1166.35c-441.31,-621.76 -494.59,-1326.35 -1376.01,-1344.22 -444.23,766.11 -227.87,1512.12 -553.02,2273.07 -242.65,567.62 -300.4,423.78 -213.1,1083.69 101.56,767.49 -38.84,539.96 -125.79,1179.93zm148077.12 65152.83c235.61,798.25 761.3,804.61 1399.9,1295.58 563.5,433.41 565.22,884.52 1256.23,1330.64 1315.35,848.77 746.86,1030.59 2992.27,2186.12 587.21,302.29 1159.31,614.02 1495.62,1128.03 394.23,602.51 872.32,712.15 1487.2,1079.05 543.05,323.94 896.89,747.21 2028.53,441.31 567.62,-153.46 1176.84,-861.32 1137.31,-1290.43 -126.14,-1366.22 -6062.73,-4190.07 -6810.45,-6199.7 -80.08,-215.33 -187.32,-784.84 -241.62,-1088.5 -104.49,-584.81 4.12,-604.23 269.29,-935.56 536,-669.53 480.67,-774.36 1466.58,-1080.77 1178.73,-366.73 1195.57,-110.5 1885.55,407.29 683.8,512.98 1048.81,373.09 1611.96,1098.3 802.03,1033.86 1813.72,1329.78 2208.97,1686.2 518.47,467.78 1816.29,1395.95 2529.82,1377.73 723.84,-18.9 1317.58,-569.86 1437.53,-1238.36 154.84,-864.58 -501.63,-1223.41 -983.5,-1597.7 -427.57,-332.02 -1131.12,-720.06 -1507.82,-1078.36 -272.21,-258.98 -336.48,-360.89 -682.94,-621.76 -1809.93,-1361.92 -1976.46,-2033.86 -4005.16,-2631.04 -2217.05,-652.69 -2785.02,-711.63 -4179.07,178.04 -606.81,387.01 -1036.09,674.86 -1428.25,1155.35 -2203.3,2699.95 -25.09,1847.23 -1864.41,3326.86 -391.48,315 -1266.2,754.43 -1503.52,1071.66zm-93097.35 31399.07c-1785.88,-1053.62 -1247.12,-143.32 -2452.83,11.17 -883.66,113.25 -2147.28,-133.87 -2709.75,-490.29 -1222.2,-774.7 -812.17,-676.41 -1316.38,-1974.4 -454.37,-1169.96 2.23,-1174.43 625.54,-1913.9 521.57,182.85 1383.06,435.13 1906.34,571.06 746.18,193.85 741.54,637.05 1540.99,910.98 974.91,334.08 1079.91,-41.59 1827.12,640.14 613.34,559.2 842.41,701.5 1980.07,624.16 152.43,-460.22 0.34,24.75 149.51,-344.56 30.42,-74.93 58.09,-149.51 101.39,-267.4 334.94,-912.36 832.45,-1996.74 806.84,-2985.91 -52.76,-2025.44 278.4,-1395.6 -542.71,-2580.51 -699.43,-1009.45 -619.52,-1388.04 -2376.01,-2212.58 -1607.67,-754.43 -2301.43,-1925.42 -4209.15,-971.65 -363.98,181.82 -631.55,418.46 -943.81,571.92 -1489.43,731.74 -466.58,-202.78 -1429.63,1297.3 -287.51,448.36 -391.99,152.95 -653.89,538.07 -198.83,292.32 -43.13,228.05 -195.57,523.8 -549.06,1066.16 -1263.1,322.05 -1682.76,4396.81 -56.54,548.55 88.68,764.91 268.43,1205.02 335.8,820.76 700.12,2155.87 1544.42,3027.33 1895.86,1956.87 3943.29,2647.19 6517.45,1300.57 884,-462.45 1250.56,-644.44 1244.37,-1877.13zm-5830.73 -6872.49c545.97,-889.5 743.08,-350.92 1418.11,-1154.84 321.36,-382.71 262.59,-294.21 908.06,-361.75 336.48,-35.06 733.98,-138.51 1070.8,-139.54 882.45,-3.27 1624.68,1017.01 2118.92,1658.02 873.86,1134.39 527.07,3583.09 -2236.47,1651.14 -705.79,-493.56 -2882.46,-1096.58 -3279.43,-1653.03zm-36751.71 -35426.57c-1180.27,20.62 72.86,1074.93 -1800.31,-1395.6 -311.57,-411.07 -748.93,-503.87 -973.36,-891.22 -489.95,-844.13 -275.13,-1658.19 -1656.99,-2003.61 -340.61,-85.07 -1278.23,-238.7 -1635.85,-230.62 -1097.27,25.61 -1067.37,318.27 -1452.48,447.5 -636.54,213.27 -839.15,33.34 -1197.11,659.22 -395.43,691.87 -556.8,2128.2 -555.25,3118.75 1.03,862 159.82,882.45 521.05,1372.75 1014.78,1377.39 338.03,1720.92 1636.19,2145.04 1444.41,471.9 866.82,1644.79 1231.66,2523.12 215.33,517.62 495.96,736.04 800.65,1070.8 976.11,6.53 1593.23,-573.47 2313.8,-965.97 361.92,-197.11 718.17,-314.49 1050.01,-498.71 466.75,-258.81 532.22,-568.31 878.85,-751.5 342.84,-181.47 781.41,-110.16 1232,-302.11 327.2,-139.2 3095.04,-1935.21 3439.43,-3053.96 597.35,-1941.4 162.23,-1506.79 -4.98,-2627.09 -277.54,-1857.71 -1085.93,-2905.48 -2338.2,-4123.74 -393.02,-382.37 -322.91,-580.17 -760.96,-898.09 -1029.04,-421.89 -606.98,360.37 -1638.26,-598.21 -189.72,-176.49 -427.39,-371.54 -737.76,-214.99 -562.81,284.24 274.62,116 -734.15,458.5 -685.17,232.69 -624.16,798.59 -294.72,1500.95 821.45,1751.16 2484.62,762.67 2997.77,1617.29 382.02,637.05 723.49,1717.99 854.96,2480.67 136.11,788.45 -4.81,300.4 -100.53,895.69 -83.35,517.27 154.49,784.84 -432.21,853.93 -768.86,90.57 -371.2,-139.03 -643.24,-588.76zm-7011.35 -1247.12c2274.96,-1121.67 2025.44,-24.92 3693.25,1141.95 412.27,288.37 1185.08,1620.55 1178.55,2116.86 -340.44,296.61 -2603.89,1478.09 -3464.69,288.71 -306.24,-422.75 -259.67,-377.21 -577.76,-733.8 -337,-377.56 -936.76,-1920.61 -829.35,-2813.72zm98183.11 39149.89c542.02,540.82 231.48,1397.66 384.09,1917.17 460.39,1568.66 226.5,341.98 144.7,1848.43 645.99,475.86 827.63,266.88 726.76,1540.82l485.14 353.67c44.34,2396.98 -110.84,1105.86 477.06,2240.42 -174.77,419.32 -197.28,249.87 -338.55,589.62 586.53,558.69 417.6,320.5 470.36,1349.55 464.34,353.33 829.87,423.61 1346.28,798.76 390.45,283.73 1724.35,1688.09 2615.74,595.98 481.18,-589.45 -178.38,-2564.36 -410.04,-3324.97 -190.41,-625.88 -174.94,-989.52 -309.33,-1645.13 -172.88,-846.02 -171.68,122.53 -502.66,-1631.73 -121.33,-644.27 -379.96,-775.56 -485.82,-1499.06 -202.27,-1383.57 361.75,-1314.83 1514.35,-2474.14 429.11,-431.52 860.63,-670.73 1504.04,-232 702.18,478.43 657.67,1007.91 758.21,1274.1 118.92,315.86 193.16,205.88 396.98,667.47 1034.03,2340.78 493.56,1721.78 746.86,4340.96 71.49,739.99 400.24,749.79 910.29,1045.71 535.66,311.22 556.45,648.57 1088.33,1033.51 2577.08,1864.76 2565.22,-936.07 2083.69,-2340.95 -132.67,-387.18 -222.89,-316.03 -345.59,-709.92 -105,-336.14 -74.76,-586.87 -155.01,-904.45 -368.28,-1462.28 -2066.51,-6315.18 -3461.08,-6660.77l-1715.76 -397.66c-850.66,-221.86 -2234.75,202.78 -2597.18,224.44 -608.7,36.43 -769.55,-370 -1408.83,452.66 -602.34,775.56 -86.1,21.83 -1504.04,979.38l-508.68 222.72c-672.8,151.92 -1144.18,-9.62 -1642.04,-42.1l-268.26 387.52zm48936.8 -124350.86c2035.57,1456.95 1207.94,-205.19 4380.65,2202.96 74.41,1840.35 -535.14,4513.84 359,4970.1 1395.09,711.63 2327.03,-1494.59 2797.56,-1955.15l807.7 -849.29c529.64,-454.03 1655.1,54.82 2326.69,390.45 766.63,382.88 1229.59,1090.91 2452.14,982.13 1413.47,-125.79 657.5,-1301.26 254.17,-1916.31 -485.31,-740.16 -762.16,-1516.76 -1235.26,-2187.49 -1234.41,-1749.96 936.42,-2117.03 1809.25,-4046.23 282.01,-623.13 123.73,-1675.03 -1575.19,-1343.02 -923.7,180.62 -2314.83,531.36 -3016.67,391.82 -1148.82,-228.05 -2099.5,-3515.21 -3003.27,-3689.13 -1287.85,-247.81 -568.83,3848.95 -1799.28,4799.45 -189.9,146.76 -2194.71,691.01 -2522.26,709.92 -1251.59,72.69 -2096.75,221.52 -2035.23,1539.78zm-58276.39 124907.83c-299.54,355.04 -278.05,550.95 -886.06,601.82 -1178.9,98.3 -443.72,250.04 -1098.99,445.09 -647.71,192.64 -575.19,-155.01 -1183.19,356.76 -148.82,125.28 -226.84,191.44 -380.31,327.72 -647.36,574.5 -218.94,703.39 -859.6,1380.99 -195.39,206.56 -528.27,498.2 -631.9,782.61 -71.49,195.39 -17.53,1042.28 96.41,1260.18 175.12,334.94 625.88,260.35 971.3,421.38 -295.58,448.87 -509.02,287.68 -804.09,705.62 712.32,1410.9 414.16,249.01 1163.6,2249.19 201.07,536.35 -21.48,331.67 325.49,971.82 597.35,1101.56 116.51,1473.97 1138.51,2043.31 888.64,495.45 276.34,791.37 1432.55,1139.72 1665.58,501.8 -445.95,1036.43 4198.32,810.28 1112.91,-54.48 1086.1,-386.66 1781.41,-823.85 2152.26,-1353.67 1023.72,-681.05 1844.82,-2174.95 475.68,-865.79 892.77,-1855.99 944.66,-2912.36 54.3,-1109.64 -596.32,-3116.86 -940.37,-4225.99 -530.16,-1708.89 -2112.22,-2088.85 -2780.89,-2424.99 -1142.12,-573.64 -2656.47,-1018.22 -4331.68,-934.35zm4025.78 5692.56c0,4.47 426.19,1138.68 189.55,2352.98 -70.46,362.09 -162.91,270.84 -159.65,682.59l-134.73 1331.5c-117.72,421.21 -372.74,136.28 -1043.82,698.23 -1089.02,911.67 -1357.62,54.48 -2305.21,-478.43 -858.22,-482.73 -1265.85,-1126.48 -1367.59,-2218.77 -31.79,-344.22 -582.92,-1589.97 -64.79,-3140.58 244.89,-732.77 747.38,-1679.33 1543.57,-2047.09 1643.93,-759.41 1835.71,-29.39 2452.31,322.22 736.38,420 399.73,374.12 634.65,1183.02 67.54,233.03 118.58,363.64 192.99,647.36 9.28,35.92 71.15,261.21 81.29,358.14 65.3,629.66 -16.15,-30.76 -18.56,308.82zm79281.91 -91091.16c-1168.41,-358.31 -1920.09,-846.19 -2051.04,-2191.96 -116.86,-1201.58 449.22,-5018.56 -1360.2,-5197.63 -2831.76,-280.29 -3328.75,575.19 -4770.76,1862.01 -741.54,661.63 -1387.7,1732.6 -1491.49,2881.94 -62.38,690.67 -78.02,1404.37 185.08,1930.75 612.82,1224.78 -194.88,329.09 1464.69,2903.42 866.3,1344.22 3557.66,1586.01 4888.99,1755.29 1734.32,220.48 2504.21,860.8 3552.5,184.74 497.68,-321.19 542.19,-717.82 1195.4,-931.26 793.61,-259.32 956.52,-143.67 1292.66,-920.61 504.73,-1166.7 809.93,-2031.79 846.71,-3513.67 59.29,-2391.48 -516.24,-4947.25 -3023.72,-5648.74 -1722.63,-481.87 -2367.08,1146.25 -1546.83,1862.18 689.47,601.99 1705.62,1038.84 2122.02,2275.14 166.87,495.27 269.63,1316.03 -56.02,1814.23 -125.11,191.1 -1026.47,818.87 -1247.98,934.18zm-4122.36 769.72c-1062.73,374.46 -2798.25,-1173.74 -2871.8,-2241.8 -103.97,-1505.93 557.83,-2891.74 2409.69,-2814.92 706.82,1901.36 233.89,1925.93 47.6,2635.33 -271.87,1035.23 746.01,1134.73 414.5,2421.38zm-2882.97 23532.93c1405.23,-90.91 1087.99,794.47 1692.9,1579.48 404.88,525.52 308.3,386.32 625.88,1019.42 289.57,576.9 475.68,424.47 1177.35,630.01 884.35,259.15 1711.81,818.18 2832.1,396.29 1168.07,-440.28 1075.1,-779 1629.15,-1796.53 293.18,-538.58 931.26,-1715.24 1046.4,-2384.26 102.77,-597.87 -33.85,-1069.08 3.09,-1637.22 25.09,-384.95 1075.79,-3062.73 471.22,-4474.48 -222.2,-519.33 -579.31,-480.67 -1289.57,-511.6l-5800.66 -1016.84c-477.4,-121.67 -874.89,-328.41 -1327.38,-417.94 -2164.98,-427.74 -4026.81,802.2 -4608.01,2123.05 -443.89,1009.28 -379.96,1834.85 -526.55,2910.64 -322.91,2370.34 -279.09,1722.29 870.25,3910.98 478.78,911.67 1747.38,1262.25 2526.38,776.77 423.44,-263.62 450.77,-653.38 677.44,-1107.75zm-30.93 -5728.14c588.25,-192.99 1314.49,-276.68 1228.56,542.88 -137.48,1309.68 94.35,702.01 190.24,1606.12 91.6,862.86 -324.11,2972.68 -1164.29,2738.1 -23.2,-6.36 -1741.02,-1050.87 -1805.47,-2289.06 -25.78,-498.71 150.37,-1444.75 320.16,-1813.03 225.3,-488.57 640.32,-591.17 1230.8,-785.02zm4183.71 1022.17c444.23,-201.92 1276.34,135.42 1714.9,351.95 752.54,371.89 377.04,698.4 664.03,1468.64 306.24,821.79 360.72,747.38 184.05,1800.31 -215.33,1284.07 -1258.81,2194.37 -2288.37,1352.81 -1223.41,-1000 -753.22,-2069.09 -786.22,-3284.76 -24.57,-913.73 -133.87,-1395.43 511.6,-1688.95zm-7120.99 20637.24c-189.04,-340.78 -54.3,-263.1 -907.55,-543.39 -1173.23,-385.46 -2201.58,-768.35 -3577.25,-588.59 -2963.23,387.52 -2487.2,1322.39 -4172.37,1717.99 -23.2,-30.07 -50.01,-116.34 -59.98,-96.58 -28.87,56.88 -304.35,-855.3 -835.02,-1447.5 -1492.7,-1665.75 -990.55,-2152.26 -2468.98,-1064.96 -2040.39,1500.43 944.15,3821.62 1760.1,3987.46 1293.35,263.1 837.77,-37.29 653.38,1360.54 -94.86,719.71 -194.02,1481.87 120.3,2151.4 359.17,765.08 647.88,2160.85 1794.98,3024.58 996.74,750.47 366.73,1005.16 2778.14,2056.54 318.78,139.03 508.51,184.74 831.42,332.7 330.47,151.57 510.91,332.53 741.02,456.44 535.83,288.54 1513.84,262.07 2234.23,218.59 856.68,-52.07 2552.67,-1340.09 3110.16,-1813.03 717.31,-608.35 1317.41,-2270.15 1575.01,-3285.96 448.53,-1769.03 1060.15,-3920.95 -1444.06,-4948.62 -698.92,-286.82 -1465.2,-276.34 -1676.23,444.41 -453.51,1549.24 972.5,2446.99 698.75,4202.44 -60.49,387.18 -591.85,1220.66 -822.99,1560.41 -980.07,1439.6 -1809.08,848.6 -2389.24,823.34 -472.42,-20.62 -802.37,-19.08 -1056.54,-264.65 -498.2,-481.53 -302.63,-1130.78 10.83,-1747.04 285.79,-561.95 677.44,-826.43 1063.76,-1292.66 610.24,-736.38 546.66,-2115.83 1622.62,-3335.28 401.27,-454.55 847.23,-1028.18 415.54,-1908.58zm-6063.07 6439.26c-481.7,-855.65 -1525.52,-2152.78 -714.21,-3569.69 948.79,-1656.99 2278.57,-1126.66 3304.18,-957.55 13.4,776.94 -656.3,2018.22 -1025.26,2636.71 -443.72,743.6 -643.07,1904.11 -1564.7,1890.53zm-11549.76 21925.09c-497.34,1348.51 581.54,1921.98 -559.72,3424.3 -1068.05,1405.74 -1034.03,1071.49 -3101.74,1080.6 -251.07,-317.58 -620.21,-655.44 -771.27,-920.95 -742.74,-1304.18 1262.93,-2146.59 1818.7,-2800.48 340.09,-400.07 365.53,-652 791.72,-977.83 403.16,-308.13 640.83,-339.06 1035.23,-731.91 410.04,-408.15 370.17,-467.26 1006.19,-751.85 2266.89,-1013.92 -41.76,-2206.39 -510.74,-2537.55 -837.6,-591.51 -742.4,-840.35 -2009.63,-1273.24 -859.43,-293.87 -1976.63,-408.83 -3003.96,-306.41 -1061.35,105.69 -1689.98,602.68 -2547.18,754.43 -5.33,-1138.68 448.19,-2705.11 -77.16,-3453.52 -1269.64,-1808.73 -3089.54,53.1 -3269.47,962.88 -98.3,497.85 16.15,415.02 196.94,682.94 579.48,859.25 294.55,1027.33 1084.38,1754.25 408.49,376.18 534.28,500.43 1107.92,702.53 -570.89,493.56 -844.48,924.21 -931.78,1763.02 -84.21,805.98 -217.39,363.98 -460.73,922.5 -220.83,507.13 -14.09,531.36 226.67,851.87 -147.79,385.12 -280.46,251.93 -307.1,695.48 -42.96,712.49 355.22,1332.19 465.03,1665.75 58.94,179.07 109.3,603.71 194.36,763.02 182.68,341.47 295.76,128.03 520.19,543.05 160.51,296.44 71.32,417.6 223.92,723.49 138.51,277.71 712.49,754.43 933.84,1033.34 -139.03,425.67 -126.48,76.99 -234.23,620.38 332.7,145.21 466.4,296.61 699.26,498.02 1440.63,1245.92 3971.13,1792.58 5827.12,1367.25 2297.13,-526.21 3475.17,-2213.78 4445.27,-4052.76 600.28,-1138.17 444.06,-2315 -142.98,-3325.66 -899.81,-1549.24 -2514.7,-41.24 -2649.08,323.08zm-5505.25 957.9c-32.14,-12.37 -68.05,-38.15 -90.57,-49.15l-1179.93 -281.84c-1702.36,-518.3 150.2,-3757.52 1761.64,-4127.69 1192.13,-274.1 1537.38,250.56 2079.57,612.31 70.29,2540.64 -2509.37,2078.02 -2570.72,3846.37zm-122731.68 -12930.93c-281.66,632.24 -417.25,901.53 -1285.27,932.64 -77.5,994.85 -418.11,922.32 -933.32,1422.75 -506.44,491.84 -476.37,777.28 -1169.79,1184.91 -1170.48,687.75 -1079.57,1155.18 -1859.6,1659.91 -619.52,401.1 -106.55,-140.92 -580.34,517.44 -470.87,654.75 -726.41,414.33 -925.07,1421.38 -358.14,1815.61 1455.92,2270.67 2905.83,3988.83 1630.52,1932.29 549.41,934.18 2428.25,2292.49 918.54,664.03 1280.63,1514.18 3011,1622.45 1539.61,96.24 2421.38,-567.11 3789.66,-854.44 1288.71,-270.84 3772.13,-3689.64 4497.51,-4795.85 720.4,-1099.16 998.97,-1748.41 1162.4,-3405.06 65.99,-671.94 187.49,-1544.94 -129.4,-2075.62 -1330.81,-2227.7 -177.35,-1331.16 -1503.18,-3206.22 -532.74,-753.57 -664.03,-416.05 -1776.25,-1643.93 -208.8,-230.28 -392.51,-338.37 -614.54,-565.05l-1093.66 -1264.31c-439.08,-477.75 -338.55,-942.6 -1194.71,-1144.87 -222.2,-52.59 -830.38,-142.29 -1070.63,-180.27 -555.08,-88.16 -617.8,-135.76 -651.83,321.71 -23.54,321.19 257.09,440.63 -35.06,947.76l-1750.82 1660.25c-771.1,622.1 -718.17,33.17 -1221.17,1163.09zm3969.41 12061.36c-627.43,32.14 -1017.87,-92.46 -1446.13,-100.53 -460.39,-8.59 -782.61,184.05 -1386.84,85.24 -1355.05,-221.69 -4713.19,-2807.7 -4452.14,-4328.58 52.24,-304.69 136.79,-337.17 282.01,-514.35 467.61,-571.4 503.7,-843.27 1067.71,-1186.46 907.2,-551.99 1657.33,-1385.63 2250.56,-2215.16 350.4,-490.29 372.92,-219.8 801.86,-615.4 540.13,-497.51 900.33,-1021.65 1438.56,-1508.51 321.71,-291.29 574.33,-370.17 872.66,-659.74 803.92,-780.38 1722.46,-1686.89 2801.51,-288.19l1209.14 1764.05c235.09,383.57 361.57,616.95 573.98,920.26 191.1,272.73 295.24,536.69 233.2,1060.66 -85.24,718.34 54.99,2126.48 -329.95,2695.48 -352.64,520.88 -221.86,590.82 -467.95,1070.98 -163.77,319.13 -997.25,1500.26 -1271.01,1643.24 -897.23,468.81 -337.86,134.39 -749.44,688.78 -323.6,435.64 -647.53,246.43 -914.59,605.6 -227.87,306.41 -162.23,475.86 -513.15,882.63zm112171.44 9964.61c-10.48,919.4 -550.1,1631.04 -845.34,2217.39 -929.37,1845.68 -400.58,507.48 -1177.52,1761.64 -693.76,1120.12 -2923.36,1479.98 -4158.45,1585.33 -2345.08,200.55 -2388.73,-677.95 -2985.91,-1344.22 -663.34,-740.16 -1365.01,-1503.01 -1898.27,-2469.15 -119.09,-215.84 -391.13,-727.79 -435.13,-925.93 -59.8,-267.74 -20.11,-381.51 -70.29,-645.82 -66.16,-346.97 -81.11,-233.2 -210.35,-514.87 -720.4,-1570.55 49.66,-3109.47 730.02,-4491.33 300.91,-611.45 809.07,-1259.32 1344.22,-1560.24 74.41,-41.93 2023.72,-790.69 2041.42,-794.64 931.09,-210.52 1675.38,231.66 2331.5,469.5 1982.64,718.17 4589.8,-350.58 2121.16,-2211.55 -534.46,-402.99 -317.41,-287.68 -658.36,-746.86 -1148.82,-130.78 -2463.14,4.12 -3648.91,-127 -922.67,-101.91 -2451.8,270.32 -2998.28,678.64 -642.89,480.15 -153.81,417.08 -1088.16,774.19 -784.16,299.71 -211.03,451.45 -1038.5,865.27 -687.58,343.7 -630.01,443.55 -1112.22,785.53 -435.3,308.64 -785.87,323.42 -1228.91,650.8 202.1,963.05 454.72,349.03 711.98,970.1 -538.07,538.41 -348,-144.7 -1303.15,563.16 0.17,644.78 204.33,827.12 32.14,1697.72 -289.74,1464 -1153.29,626.57 309.85,2370.68 518.99,618.66 160.34,725.04 149.68,1446.64 -9.97,671.08 886.06,2115.14 1201.07,2613.17 816.98,1290.77 2362.78,2255.54 2804.26,2857.88 406.77,555.42 400.07,505.24 1142.29,790.17 2272.73,873 3217.39,1719.37 6015.13,843.27 582.06,-182.33 751.33,-414.16 1209.66,-682.25 980.07,-573.81 2343.7,-911.84 3421.04,-2241.8 595.12,-734.49 1197.63,-1128.89 1714.73,-2067.2 331.5,-601.99 277.37,-800.48 480.15,-1428.77 148.31,-459.19 477.06,-874.72 103.28,-1526.38 -116.34,-202.78 -287.85,-288.71 -426.36,-503.01 -127.34,-196.6 -192.64,-443.38 -295.24,-655.78 -240.25,-495.45 -522.08,-681.05 -765.25,-1119.61 -353.67,-637.74 -865.44,-1817.84 -1528.79,-2226.33 -876.1,-539.44 -3213.44,877.64 -3904.28,1365.87l-2287.85 1497.68c-1421.9,1033.68 633.27,1233.2 633.27,1233.37 217.39,69.77 567.11,272.73 762.5,321.88 525.35,131.98 436.85,-218.25 1492.7,-545.11 1750.82,-541.67 2113.77,-371.37 3313.46,467.95zm-85111.95 -162494.56c-964.94,236.47 -1796.01,659.74 -2565.74,1102.42 -987.8,568.14 -1474.65,268.95 -2477.23,1194.02 -1692.9,1562.3 -1927.14,1042.62 -2917.86,4429.97 -723.66,2474.83 324.8,4615.4 741.54,6247.64 576.39,2256.58 532.05,1874.72 2084.04,3350.58 520.02,494.59 330.13,563.5 651.49,1217.05 433.41,881.6 1454.37,902.05 2233.38,1445.78 1976.29,1379.45 3870.26,680.19 6302.46,589.79 699.61,-25.95 986.08,-116.51 1341.13,-480.15 452.31,-463.65 421.89,-448.02 1019.59,-856.16 383.57,-261.9 615.74,-542.36 882.63,-901.01 1647.02,-2213.1 1315,-130.95 2328.41,-3195.74 404.71,-1223.92 680.87,-1578.11 436.85,-3011 -119.95,-702.87 -142.64,-904.45 -651.66,-1208.46 -457.81,-273.07 -1124.42,-272.73 -1609.73,-97.96 -1090.91,393.02 -1242.65,968.9 -1363.64,2271.01 -76.47,822.31 -239.56,786.39 -377.21,1439.08 -292.32,1384.43 -1577.94,2065.65 -2869.22,2643.24 -429.11,192.13 -676.41,347.31 -1282.18,252.11 -1593.75,-250.73 -1770.41,500.26 -2670.05,-925.42 -508.85,-806.32 -1104.83,-157.24 -2139.03,-1531.02 -363.64,-483.07 -296.27,-775.05 -516.93,-1367.07 -299.54,-803.4 -423.1,-236.98 -1106.03,-2558.52 -258.98,-880.05 -480.67,-2341.64 -102.77,-3204.85 173.91,-396.98 291.97,-1034.89 495.96,-1286.99 173.4,-214.13 302.46,-230.62 495.45,-440.45 215.84,-234.75 176.15,-286.99 411.93,-535.66 1025.95,-1082.32 1226.16,-558.34 2628.46,-1025.78 1930.75,-643.58 1242.31,-245.4 2046.92,-144.53 368.1,46.06 512.12,-75.44 857.36,65.3l1867.16 1768.17c990.72,907.03 1616.43,-538.41 2011.69,-1168.07 989.69,-1575.53 -292.66,-1923.18 -647.53,-2322.57 -208.97,-235.26 -620.04,-1184.91 -2122.7,-1542.36 -443.2,-105.34 -3109.13,-287.85 -3416.91,-212.41zm19259.34 14119.28c1546.32,-1.55 1324.46,-499.06 2187.32,-1025.78 855.99,-522.43 1003.61,-174.43 780.55,-2210.69 -95.55,-868.88 49.15,-1135.76 457.98,-1615.74 1145.56,-1344.91 1315.69,-664.2 3129.41,-1106.03 548.72,-133.7 3505.93,-363.46 4079.91,-314.14l1256.06 2937.62c225.81,1027.15 1813.03,3199.69 3516.41,2896.72 513.83,-91.08 813.37,-791.2 917.51,-1274.45 309.68,-1434.61 -464.69,-2528.79 -1023.54,-3233.2 -848.26,-1068.91 -480.15,-2257.78 -1382.88,-2983.68 -707.34,-569 -229.76,-1575.36 -991.06,-3361.06 -115.48,-270.49 -1244.54,-2483.59 -1557.83,-2814.4 -1993.99,-2107.58 -2521.23,-4776.94 -3419.32,-5303.67 -1066.34,-625.37 -3527.93,-953.09 -4390.28,1256.06 -262.93,672.8 13.06,1296.79 -330.81,1906 -1181.48,2092.29 -503.01,947.76 -970.1,2208.8 -136.97,370.68 -250.04,390.1 -437.19,737.24 -512.63,949.48 279.09,2108.1 -694.62,3675.72 -549.24,884.17 -245.06,771.95 -365.01,1785.02 -79.74,673.31 -1463.65,4355.91 -1689.64,4868.54 -246.26,558.17 -263.96,1214.13 -255.37,1894.49 9.62,776.59 348.34,1077.51 1182.51,1076.65zm6773.85 -15500.27c155.7,345.59 212.06,742.22 362.61,1136.97 342.16,896.55 912.01,2418.29 1373.09,3120.81 219.63,335.11 999.31,1530.85 892.42,1986.77 -213.44,909.26 -3676.41,442 -3867.33,384.26 -1511.09,-455.75 -1645.82,-929.03 -838.29,-2742.74 636.71,-1429.63 -155.35,-446.13 713.87,-2226.5 647.53,-1327.38 612.13,-1627.26 1363.64,-1659.56zm24709.77 8587.91c914.42,14.09 2540.82,326.86 3229.25,835.88 277.54,205.19 274.1,314.66 505.59,550.61 465.54,474.31 1093.66,513.32 1467.95,1725.56 410.38,1328.92 -784.16,1861.66 -1840.35,2198.32 -1363.47,434.44 -1454.03,972.33 -3232.35,262.76 -2613.68,-1042.28 -2813.2,-2517.79 -3243.86,-2987.46 -1009.28,-1101.05 -329.27,-2239.91 -1477.57,-2779.35 -765.6,-359.51 -2319.64,-357.62 -2080.77,2021.48 135.76,1352.64 -51.9,633.1 -228.91,1711.12l1764.05 2003.95c2060.49,2244.37 1858.22,1563.84 3337.17,2337.52 433.24,226.33 657.16,512.63 1239.39,623.82 664.38,126.83 970.96,58.77 1614.54,259.49 1932.46,602.85 1548.55,499.06 3118.58,211.38 975.77,-178.73 736.73,-40.04 1384.6,-534.11 1476.89,-1126.48 1656.64,-389.41 2086.96,-1703.9 239.22,-731.57 794.47,-2244.03 875.58,-2918.72 263.45,-2183.71 -1370.86,-1939.68 -1764.91,-2152.26l577.08 -200.38 1.89 -2040.9c-778.48,-562.12 -1789.83,-582.92 -2726.07,-1052.93 -1006.02,-504.55 -1120.98,-880.39 -2394.06,-1349.2 -1418.46,-522.6 -2319.82,-1088.68 -2653.04,-3032.83 -122.19,-713.01 207.42,-990.03 441.66,-1481.7 823.34,-143.32 3500.09,-128.72 4167.73,69.94 3394.74,1011.17 1332.53,3735.35 3913.91,4562.82 2421.21,776.08 2762.33,-2899.81 2227.19,-3512.12 -809.93,-926.45 -2314.83,-2501.29 -3465.89,-2908.06 -1101.22,-388.9 -1448.19,-1047.26 -2785.88,-1458.16 -698.4,-214.3 -3267.75,-116.34 -4059.46,-117.72 -425.85,-0.52 -1089.54,-23.89 -1500.26,-106.03 -796.87,-159.13 -340.95,-420.35 -1276.17,-490.29 -273.59,726.07 -315,775.05 -142.12,1583.61 137.31,641.52 -305.21,681.22 -598.21,1337.52 -595.12,1333.22 -461.76,2272.04 -232,3677.27 179.24,1097.27 49.49,872.32 622.44,1536.18 838.98,971.82 581.2,484.45 1145.39,990.21l1161.88 956.01c542.19,474.31 455.58,918.03 819.04,1370.68zm34445.98 12685.35c97.96,-349.72 156.56,-372.92 234.58,-741.54 182.51,-863.21 740.33,-1621.76 1048.12,-1682.94 321.36,61.01 372.74,162.57 605.43,294.04 34.54,19.59 240.25,129.92 346.8,140.75 855.99,87.99 -756.32,139.2 317.24,-35.75l173.23 -248.15c109.64,-869.74 17.36,606.98 27.5,-218.59 2.75,-222.55 -389.59,-2197.63 -78.71,-3228.56 343.01,-1138.17 1113.77,-1891.39 -68.91,-2813.2 -954.12,-743.43 -1585.5,-1045.89 -2613.17,-85.58 -618.49,578.11 -1266.03,1430.83 -1547,2474.65 -391.82,1455.41 -764.22,1394.74 -1493.56,2388.56 -717.48,978.18 -1918.54,-139.37 -2579.14,-559.72 -410.38,-260.7 -863.38,-444.92 -1135.25,-744.46 -376.87,-415.54 -406.43,-668.84 -1065.82,-936.24 -792.4,-321.19 -2397.15,-640.14 -2852.04,-1164.63 -581.72,-670.91 794.47,-2048.81 1079.74,-2444.41l1570.37 -2421.72c879.02,-1645.13 1154.15,-2656.64 -1466.23,-3043.65 -1613.85,-238.53 -1722.12,1783.81 -2775.74,3030.94 -495.27,586.01 -1188.01,1803.23 -1492.35,2494.42 -302.8,687.92 -15.64,821.79 -549.24,1359.86 -1672.45,1686.55 -647.36,726.41 -1533.25,2472.94 -1601.82,3156.9 -2092.97,2528.62 -2528.79,3367.42l-1384.78 2515.38c-421.72,1206.05 -237.15,1477.06 1544.77,1992.96 925.76,268.26 2269.46,-675.03 2681.39,-1196.94 877.47,-1111.7 585.32,-1899.47 1134.39,-2767.66 2332.53,-3687.41 3318.1,-1885.21 4486.86,-1041.25 784.5,566.76 5420.7,1112.05 4238.53,3401.45 -254,491.67 -668.16,558.34 -900.67,1093.14 -251.93,579.31 -150.37,889.16 -554.05,1468.47 -293.52,421.21 -650.8,694.97 -865.79,1022.51 -211.03,321.88 -465.72,1014.44 -574.84,1451.45 -646.85,2595.47 1515.55,3279.6 2766.97,2513.49 722.29,-442 734.32,-1631.9 1482.9,-2527.58 359.17,-429.97 745.49,-495.62 872.49,-1138.51 307.61,-1555.6 504.38,-1575.53 1179.41,-2711.46 349.03,-587.21 500.43,-601.99 842.41,-1166.7 415.02,-685.69 502.15,-505.41 1426.19,-563.16zm-122072.11 25118.6c-32.82,-1132.5 1026.12,-2579.14 1662.31,-3324.63 286.3,-335.28 362.09,-588.76 626.74,-1023.89 257.26,-422.93 506.27,-550.44 767.14,-882.45 305.72,-388.38 292.66,-679.5 517.62,-1124.76 229.76,-455.58 470.01,-466.58 800.83,-858.91 313.28,-371.37 1963.74,-2689.64 1927.48,-3171.68 -30.25,-399.73 -317.58,-903.25 -614.37,-1090.05 -159.99,-100.88 -345.94,-155.87 -546.66,-277.2 -268.6,-162.4 -253.31,-222.2 -567.97,-368.62 -382.02,-177.87 -768.35,-226.67 -1228.05,-433.92 -775.56,-349.89 -3295.76,-881.25 -4156.04,-903.42 -1448.36,-37.64 -1549.41,341.47 -2329.44,968.55 -492.18,395.6 -684.31,182.85 -1266.71,365.36 -670.22,209.83 -1830.21,2235.44 -2202.1,2900.33 -672.97,1202.27 -487.71,1207.6 -796.87,2642.72 -109.64,510.05 -401.44,656.99 -400.76,1255.03 0.86,531.19 249.7,787.59 307.1,1417.43 125.62,1380.31 891.56,2397.15 1689.47,3348.69 367.07,437.88 301.43,644.61 576.9,1074.07 206.91,322.39 1478.78,1232.86 1898.78,1507.48 346.8,226.84 632.24,465.37 1006.87,651.49 534.28,265.51 667.64,163.26 1125.28,528.61 1006.7,804.09 1138.68,526.72 2473.62,855.3 762.5,187.83 343.87,510.74 1160.85,399.55 670.91,-91.25 912.01,-91.6 1596.67,-95.21 1137.31,-6.01 1511.6,-564.53 2367.93,-1058.77 756.49,-436.5 1140.92,-971.82 1688.09,-1618.66 419.14,-495.45 1920.26,-2407.12 2095.04,-3014.95 153.63,-534.28 60.32,-736.21 300.74,-1324.28 441.49,-1079.22 679.84,-1495.96 362.09,-2753.4 -303.83,-1203.13 113.25,-1719.54 -697.37,-2617.98 -289.4,-320.67 -1177.18,-1543.39 -2071.84,-1048.46 -323.08,179.07 -1528.27,1437.02 -1637.05,1699.78 -533.08,1288.71 1853.58,2339.24 300.74,5363.81 -477.4,929.71 -530.85,1502.32 -1452.14,1951.37 -293.87,143.15 -2032.48,742.05 -2557.49,708.37 -1344.39,-86.27 182.85,-888.64 -2727.45,-646.68zm134.56 -9951.2c1095.55,-215.67 2056.2,-25.26 1672.97,1366.73 -229.94,834.85 -1880.74,2498.89 -2105.17,2928.86 -278.74,533.43 -272.04,610.41 -630.18,1038.5 -828.32,990.03 -1844.99,2900.33 -2599.42,1057.06 -314.66,-768.52 -563.33,-282.69 -789.83,-859.6 -160.34,-409.01 168.41,-2509.37 290.08,-2910.3 309.85,-1021.48 832.79,-1451.97 1522.43,-1929.2 1585.84,-1097.1 980.75,-365.36 2639.12,-692.04zm110768.44 41650.66c-666.44,588.42 -126.83,220.83 -1071.15,467.78 -494.42,129.58 -668.5,370.17 -1213.1,417.25 -708.2,61.69 -2572.09,235.26 -2950.51,130.26 -796.36,-221 -914.59,-1288.37 -1013.23,-2214.64l-747.04 -2697.54c-759.07,-1604.74 -3036.44,-1072.18 -3598.04,-764.57 -619.01,339.23 -856.51,425.67 -971.13,819.9 -372.23,1280.29 231.14,2073.9 414.5,2804.61 236.12,940.54 330.81,1808.39 631.04,2792.23 802.2,2627.77 269.81,1224.44 356.08,2730.88 42.1,736.55 694.11,1676.58 836.4,2378.07 109.13,539.44 -36.6,1009.45 85.41,1596.15 118.23,567.62 255.54,822.48 366.9,1316.03 351.26,1557.14 -295.93,3594.44 3754.94,2979.9 1023.89,-155.35 1642.38,-731.74 1581.2,-1910.98 -27.32,-524.83 -861.15,-2351.44 -991.92,-4000 -42.45,-531.88 -219.28,-963.4 -223.75,-1548.72 1045.71,-748.41 1350.23,-236.98 2176.15,-626.74 569.51,-269.12 1293.35,-681.56 2086.79,-720.57l676.23 86.27c1819.39,355.56 593.23,3078.54 925.93,3790 183.71,393.2 306.24,371.03 453.69,913.22 123.9,456.61 134.22,904.97 363.46,1205.88 221,289.57 504.21,342.67 864.07,546.14 512.63,289.74 444.23,280.12 1210.86,157.59 1517.79,-242.83 2168.76,263.62 3392.51,-965.63 446.98,-449.22 289.23,-437.19 289.91,-1227.7 1134.04,459.19 600.45,119.09 1292.49,329.61 886.41,269.81 2305.9,1274.62 3563.67,271.7 321.71,-256.57 458.15,-516.24 736.38,-800.48 513.32,-523.97 277.2,-292.15 520.19,-1039.53 275.82,-849.29 1614.88,-1896.03 -1252.45,-4131.64 -318.61,-248.32 -520.19,-466.92 -958.24,-586.87 -189.72,-51.9 -1291.29,-287.16 -1384.43,-296.1 -1107.92,-103.97 -2033.51,1398.52 -2385.12,2268.78 -229.76,568.65 -307.79,528.1 -673.14,877.81 -615.23,-387.35 -410.38,-344.73 -847.4,-844.13 -309.85,-354.01 -695.48,-472.42 -754.6,-1087.3 -88.16,-917.34 428.77,-2011.52 -127.86,-3324.46 -205.53,-484.79 -44.85,-939.68 -333.39,-1447.84 -393.71,-694.28 -535.32,-107.92 -537.03,-1353.84 -1.03,-627.08 48.63,-1236.98 -46.06,-1854.1 -124.25,-807.87 -27.32,-816.98 -379.1,-1493.04 -654.75,-1258.98 -1313.8,-1254 -2291.29,-897.58 -1213.1,442 -2113.77,-647.88 -2693.08,720.23 -285.62,674.86 -182.68,840.7 -8.42,1490.98 155.53,581.2 46.74,1186.46 187.15,1700.98 126.83,464.34 422.75,846.02 529.99,1329.27 121.33,547.86 173.05,1080.6 155.53,1712.5zm7276.34 7083.35c-823.85,-30.25 -838.29,-646.33 -248.67,-958.41 367.07,236.3 406.26,514.52 248.67,958.41zm-49183.75 11020.12c-760.96,-697.2 -653.03,-2139.2 -1226.5,-3424.3 -2788.28,-160.17 -639.29,1884.35 -5382.37,1708.54 -2049.32,-76.13 -4804.27,-3024.92 -3182.68,-6264.31l1567.97 -1957.73c789.14,-733.29 1362.61,-713.01 2645.13,-519.16 1160.51,175.63 1071.66,131.64 2036.09,527.75 1575.7,647.53 877.47,-1720.23 765.42,-3224.27 -99.33,-1332.88 -778.48,-1514.18 -1976.63,-1752.36 -1332.53,-265.34 -2011,-210.35 -3227.71,127 -883.31,244.72 -1604.4,232.17 -2969.07,698.92 -455.58,155.7 -1965.46,1230.45 -2174.77,1484.96 -1189.55,1446.64 -608.7,374.29 -1510.4,2148.65 -1345.08,2646.68 -420,3457.47 -380.48,6253.14 26.29,1864.41 1232.69,3717.31 2512.29,4842.42 1780.72,1565.05 538.07,1168.07 3401.27,2040.21 1212.24,369.14 444.58,897.92 2859.26,827.63 733.12,-21.31 885.72,-287.33 1541.85,-366.39 1394.91,-168.24 1848.09,-102.08 2861.15,-805.47 794.81,-551.99 1362.09,-1067.19 2737.76,-832.45 626.74,107.06 2729.17,-131.47 3280.98,-344.56 865.79,-334.08 1188.35,-1277.88 1226.5,-2408.15 63.07,-1867.16 557.48,-1283.73 2011,-1672.45 1180.27,-315.52 2000.35,-18.73 2434.1,-67.71 1674.86,-188 1509.88,-1035.4 2969.24,1104.83 735.35,1078.54 1024.4,829.18 2627.26,726.59 4384.95,-281.49 1759.93,-2421.21 6196.95,-1338.55 1771.78,432.38 1211.38,183.54 2370.17,-50.7 593.57,-119.95 814.23,191.61 1523.46,-22.17 607.84,-183.19 753.39,-503.18 1219.63,-655.1 775.91,-252.45 709.23,-8.42 1225.98,-582.75 333.22,-370.51 441.66,-654.41 828.67,-1056.88 900.16,-936.93 839.15,-1014.61 1106.89,-2597.53 196.77,-1163.6 352.81,-2164.98 -96.06,-3190.76 -312.08,-712.84 -819.56,-1972.51 -1286.13,-2394.57 -151.23,-136.79 -2044.85,-1314.83 -2291.12,-1384.95 -669.53,-191.1 -1087.64,6.53 -1628.98,37.81 -551.64,31.96 -933.84,-202.1 -1617.81,-201.92 -716.62,0.34 -1161.88,113.59 -1552.33,-316.72 -304.18,-334.94 -422.93,-793.78 -409.52,-1398.7 432.38,-223.41 621.41,-222.55 1099.5,-528.1 1872.83,-1197.46 3383.57,285.79 4181.82,-175.8 627.6,-363.29 602.68,-2093.15 323.6,-2865.62 -324.45,-898.44 -957.21,-1108.61 -2139.2,-1308.65 -954.63,-161.71 -2007.74,208.97 -3042.79,275.31 -995.36,63.76 -1567.62,583.61 -2386.67,1004.13 -908.92,466.23 -2813.72,2409.69 -2803.92,4036.61 13.23,2206.22 779.69,3169.96 2296.1,4429.97 742.91,617.46 881.42,262.07 2634.99,817.32 900.16,285.27 2144.87,32.48 3024.23,379.1 572.78,225.98 1817.32,691.87 1728.48,1396.12 -69.77,552.84 -581.37,1536.18 -1462.8,1898.78 -777.63,320.16 -2308.3,85.93 -2945.7,-150.71 -903.42,-335.11 -1429.28,-1229.59 -2261.39,-98.3 -1243.51,1690.15 -1042.62,3028.01 -1943.98,2997.77 -544.08,-18.56 -627.43,-529.13 -751.33,-998.63 -174.94,-662.31 -998.63,-1581.89 -1393.88,-2044 -638.94,-747.21 -648.22,-1384.95 -1340.78,-2081.63 -617.12,-621.41 -194.36,-416.39 -443.03,-1197.29 -199.52,-626.57 -967.18,-541.67 -1491.32,-1792.92 -447.16,-1068.05 -1140.23,-2543.05 -1880.22,-3335.46 -708.54,-758.89 -372.74,-1461.25 -1506.79,-1911.15 -1760.1,-698.23 -3202.96,256.75 -4113.94,454.89 -1752.88,380.99 -1527.24,227.19 -2351.27,2863.38 -246.95,790.69 36.09,705.96 16.67,1426.71 -33.34,1247.98 -338.89,2669.02 -359,3073.73 -28.36,580.68 90.05,1144.87 -37.29,1707.34 -127,559.37 -125.62,819.39 -221.69,1444.24 -66.85,433.24 -296.1,850.32 -383.92,1389.07 -189.38,1162.4 499.57,1481.7 -384.6,2779.35 -702.7,1030.93 475.51,1456.95 -696.34,2416.57zm6417.09 -13330.65c1435.47,-53.79 1981.61,2756.49 2290.6,3250.73 334.42,534.8 995.36,904.8 1142.64,1672.97 248.67,1295.76 -398.35,1183.71 -1308.13,1428.94 -450.08,121.67 -1951.88,618.49 -2196.26,621.93 -748.58,9.97 -746.01,-1265.85 -592.03,-2007.74 179.41,-863.89 180.44,-1689.12 312.25,-2533.94 82.66,-531.36 235.61,-650.63 300.74,-1085.41 64.27,-427.91 -3.78,-857.02 50.18,-1347.48zm-40495.14 12135.26c691.87,60.32 582.57,328.58 1355.39,164.81 524.66,-111.19 782.27,-260.18 1356.59,-303.49 610.76,-46.06 1051.9,75.96 1538.07,-135.93 946.73,-412.79 1483.25,-611.96 2589.97,-643.58 841.38,-24.23 1334.59,-264.99 2096.75,-433.41 290.94,-64.27 271.35,-104.14 601.82,-198.14 505.76,-143.67 965.63,-81.97 1452.14,-216.88 2356.42,-653.55 1146.25,-2843.62 661.8,-4505.93 -432.89,-1485.82 -128.72,-916.48 -903.42,-2405.57 -610.93,-1173.57 -665.75,-1053.62 -1421.9,-1872.66 -461.08,-499.57 -220.66,-629.32 -503.18,-1159.65l-1521.4 -1769.89c-421.21,-424.47 -539.61,-243.34 -828.32,-818.87 -519.85,-1036.78 -2469.84,-2487.89 -3554.91,-3051.56 -1037.98,-539.27 -957.55,-653.55 -2370.17,-952.57 -844.65,-179.07 -1571.23,-594.78 -2576.91,-767.14 -398.87,-68.4 -1039.87,40.04 -1497.51,101.39 -1389.42,186.46 -6417.26,297.3 -7263.8,942.43 -338.55,258.29 -387.01,606.81 -899.47,667.81 -378.59,44.85 -395.09,-28.87 -782.95,78.19l-1181.65 488.23c-578.62,276.68 -55.16,327.72 -1572.78,900.84 -1228.56,464.17 -620.38,1107.75 -1791.89,1514.18 -2224.95,772.13 -2672.8,2604.23 -3247.81,3386.32 -556.11,757.18 -1368.28,2471.73 -1492.01,3516.07 -68.91,580.86 47.77,941.06 -213.1,1383.74 -1471.04,2496.14 -493.21,4261.22 -602.17,5543.74 -193.5,2271.35 463.48,3453 1015.3,5409.53 135.59,480.84 248.67,911.33 354.87,1285.62 423.1,1489.09 1830.56,2869.91 2496.99,4140.06 292.15,556.45 440.8,507.99 738.79,909.26 537.21,723.15 114.11,333.91 831.59,873.35 312.25,235.09 396.98,545.46 564.53,900.33 1014.44,317.24 513.15,75.44 1354.53,725.73 1007.91,779 1881.6,990.38 2468.81,1484.79 542.02,456.09 535.49,346.8 1250.73,641.18 1075.44,443.03 659.39,130.09 1579.83,226.5 340.44,35.57 760.1,437.53 1279.77,574.15 1523.46,400.76 2098.99,11.17 3385.98,250.9l1212.58 18.73c33,-6.7 62.21,-15.12 93.66,-22.86 1299.71,-318.27 2717.82,-496.48 4068.23,-532.39 672.45,-17.87 758.38,-224.78 1477.4,-418.29 704.25,-189.55 1580,-120.3 2194.71,-496.31l145.56 -91.08c623.99,-388.73 1033,-868.02 1655.44,-1290.77 433.92,-294.9 845.51,-351.44 1296.1,-598.73 1035.4,-568.48 1478.61,-783.3 2293.7,-1713.7 673.66,-768.69 1361.23,-1177.18 1774.88,-2144.01 237.15,-554.56 490.81,-661.45 822.31,-1160.34 518.65,-780.55 1200.38,-1830.04 887.27,-2857.88 -655.61,-2152.95 -2913.22,-1044.51 -4191.27,-1370.51 -633.61,-161.54 -925.42,-283.04 -1499.4,-480.5 -418.29,-144.01 -1082.15,-230.28 -1535.49,-364.15 -1979.21,-584.29 -2179.24,-423.61 -2578.11,661.45 -198.49,540.13 -584.12,700.29 -787.59,1217.91 -228.39,580.86 -199.35,938.99 -157.42,1485.82 -74.58,-86.96 285.27,-65.82 -379.62,-120.3 -486.85,-39.7 -919.23,127.34 -1275.65,336.48 -531.36,311.57 -820.76,357.97 -1401.79,596.84 -569,234.06 -1914.59,1166.87 -2543.05,912.01 -19.42,-7.91 -57.23,-37.46 -72.35,-45.2 -16.15,-8.42 -59.29,-18.9 -70.8,-56.02 -11.86,-38.15 -45.88,-41.93 -69.43,-62.38 -22.17,25.95 -42.96,65.82 -57.23,85.24 -538.75,732.77 -391.82,342.33 -1003.95,-30.59 -1137.31,379.28 -2326.52,-3.44 -3219.11,-676.75 -833.31,-628.8 -1628.46,-927.82 -1967.69,-2055.51 -519.51,-1726.93 -1884,-838.12 -508.16,-2497.85l202.61 -274.62c486.68,-648.91 477.57,-258.98 1346.62,-640.66l1669.36 -412.44c652.69,12.72 258.46,434.44 1386.32,-190.93 831.59,-461.08 641.35,-62.55 1607.32,-260.18 542.36,-111.19 1093.83,-275.82 1604.92,-426.71 1603.03,-473.28 1564.53,360.89 2830.21,-896.72zm-6439.26 -12797.57c-10.83,-2.58 -51.9,-13.23 -65.13,-16.5 -13.92,-3.09 -52.76,-11.69 -67.37,-15.29 -15.47,-3.61 -55.16,-11.69 -69.6,-14.95 -97.27,-23.2 -66.16,186.46 -140.4,-35.06 -8.94,-26.81 -49.84,-7.91 -71.49,-19.42 198.66,-349.89 415.36,-677.44 932.29,-687.75 127.17,1406.94 -125.97,1351.78 -248.32,2338.55l2276.85 555.77c1279.6,37.29 2899.64,1047.26 3430.15,2149.34 333.05,692.39 322.39,1604.92 -254.34,2013.23 -368.45,134.04 -1054.65,88.33 -1518.3,204.5 -398.01,99.67 -1016.15,416.39 -1296.44,423.1 -332.7,8.25 -387.35,-98.64 -826.43,-82.83 -431.17,15.64 -357.62,87.99 -735.18,122.53 -802.2,73.55 -531.36,-260.01 -1460.39,-273.24 -107.75,177.52 -411.07,705.45 -554.05,880.05 -321.02,392.16 -412.1,248.84 -940.2,226.67 -72.86,360.03 -131.12,621.07 -324.28,808.56 -689.98,-276.16 -213.78,-652.35 -1378.76,-288.88 -536.18,167.38 -1069.26,273.24 -1687.23,255.89 -441.14,-896.37 -1311.22,-739.65 -656.47,-2123.05 218.25,-461.59 382.54,-456.61 598.21,-1049.67 230.97,-633.96 215.16,-578.28 646.68,-993.81 475,-457.47 1051.38,-1517.1 1742.74,-1592.03 458.33,-49.66 1393.88,-510.91 2014.95,-772.3 287.68,-121.15 17.01,39.01 234.92,-120.3l-117.55 -1300.74c416.74,-193.5 467.43,-100.02 600.45,-575.87 -19.76,-10.65 -54.48,-13.92 -65.3,-16.5zm-1269.12 11020.63c-195.91,-358.82 -127.69,-1000.17 310.36,-761.82 405.05,220.48 87.99,701.5 -310.36,761.82zm2008.59 49604.96c-158.96,1082.32 -341.81,1258.12 1099.33,1207.25 1383.4,-48.81 1143.67,-66.16 1815.61,744.8 272.56,329.44 1738.96,967.69 2384.26,1393.88 346.28,228.73 411.41,402.99 739.3,548.89 446.13,199 440.45,33.85 840.52,347.83 344.73,270.49 245.92,344.22 710.26,577.93 734.15,368.79 836.91,631.55 1747.9,864.93 758.72,194.36 981.61,542.88 1598.56,875.41 519.68,280.12 1322.74,569.34 1825.06,783.3 1158.79,493.56 2367.93,1098.64 3571.58,1489.95 721.95,234.75 931.6,579.31 1627.6,829.87 646.68,232.69 1309.16,410.9 1964.08,639.97 638.77,223.58 1211.21,363.64 1791.37,680.53 1897.06,1035.75 2004.81,159.82 3980.41,1195.74 1039.7,545.28 1097.1,297.99 2293.35,348.17l3237.67 549.92c1694.62,314.32 3672.11,1126.66 5365.88,970.61 687.92,-63.58 1314.49,-367.25 2221.86,-219.8 579.83,94.17 1241.97,519.68 2024.23,541.67 581.72,16.15 1330.64,-342.5 2023.55,-407.63 908.4,-85.58 1597.53,138.34 2547.86,-28.53 2012.38,-353.33 3790.52,247.12 5901.53,-384.95 456.09,-136.45 700.46,-94 1151.75,-170.3 720.06,-121.67 1149,-410.72 2039.01,-569.17 689.81,-122.87 1428.25,-230.11 2148.14,-344.22 938.99,-148.99 1201.24,-554.39 1875.75,-596.84 1106.89,-69.43 1345.59,-44.68 2162.57,-494.93 902.56,-496.82 1163.09,-221 2058.26,-537.03 825.4,-291.12 1101.91,-323.77 1805.47,-686.54 499.23,-257.6 1353.67,-372.92 1963.23,-609.38 664.55,-257.6 885.89,-666.95 1545.63,-923.7 656.3,-255.54 1336.66,-340.95 2083.69,-535.32 701.32,-182.51 1029.39,-562.12 1703.56,-748.24 705.28,-194.54 549.75,-667.13 1464.34,-1148.82 1188.52,-625.88 2166.01,-1033.51 3258.98,-1808.73 527.93,-374.29 887.09,-786.91 1438.56,-1024.06 3679.16,-1581.54 1800.48,-350.92 3044.34,-2041.93 116,-157.59 1143.5,-1000 1384.78,-1217.22 596.49,-537.38 1139.03,-486.68 1532.91,-944.66 513.66,-596.84 572.78,-828.15 1306.41,-1274.79 650.97,-396.29 854.1,-759.93 1369.65,-1235.09 427.91,-394.05 988.32,-755.11 1458.33,-1129.75 989.86,-789.48 1551.99,-1802.03 2527.93,-2541.68 496.82,-376.35 826.78,-764.91 1293.18,-1190.76l1449.73 -1136.62c892.25,-766.28 -131.29,-1063.41 457.12,-1795.16 378.24,-470.01 812,-897.92 1185.94,-1408.32 203.99,-278.23 264.99,-432.89 512.29,-663.34 816.29,-759.93 888.99,-1511.43 1595.29,-2295.93 826.95,-918.89 1276.34,-2057.4 2137.65,-2929.72 492.87,-499.06 759.41,-869.57 983.5,-1532.4 238.53,-705.1 1100.19,-1950.34 1273.93,-2480.15 266.37,-810.96 517.79,-2187.32 1078.36,-2793.95 517.62,-560.23 160.68,-5.5 509.88,-805.29 161.71,-370.68 329.27,-447.67 513.66,-758.55 313.11,-527.24 386.66,-1436.5 648.91,-1978.69 269.12,-556.45 687.75,-710.43 1052.59,-1414.16 413.3,-797.56 260.87,-1457.64 549.58,-2048.98 257.43,-526.9 311.74,-157.59 437.88,-755.8 348.17,-1652.18 -31.96,-2235.61 702.7,-4372.58 245.4,-713.87 284.93,-1405.74 526.21,-2068.23 125.11,-343.87 317.58,-504.55 385.81,-882.97 71.15,-395.09 -13.92,-719.02 91.08,-1095.55 122.53,-438.91 274.79,-415.54 315.52,-1003.44 73.72,-1067.37 -249.18,-1476.37 235.61,-2325.32 491.32,-859.94 258.12,-1262.76 77.68,-2121.16 -175.8,-835.54 122.53,-1427.91 279.6,-2105.69 408.66,-1764.57 -41.76,-3532.05 98.47,-4748.76 100.36,-869.57 313.97,-1088.33 145.04,-2211.72 -283.55,-1885.03 -380.48,-2911.84 -88.85,-4683.11 232,-1410.72 -699.09,-2790.17 -715.93,-4212.07 -8.94,-765.77 -198.32,-1589.62 -327.03,-2332.19 -170.13,-980.75 6.01,-1113.77 -409.18,-2076.13 -336.31,-779.17 -166.52,-1299.71 -548.03,-2046.92 -380.99,-746.35 19.76,-1371.71 -825.92,-2940.89 -173.23,-321.36 -226.84,-587.21 -360.72,-932.98 -299.36,-772.64 -572.78,-809.42 -609.38,-1817.32 -63.93,-1766.11 -1625.19,-3886.41 -2133.7,-5561.1 -378.93,-1249.18 -1311.39,-2151.23 -1774.02,-3323.08 -253.48,-641.86 -423.27,-1200.04 -748.93,-1724.35 -81.29,-130.78 -116.86,-191.96 -221,-358.65l-294.38 -420.86c-663.34,-998.11 -1032.14,-1283.56 -1594.95,-2294.73 -965.8,-1736.38 -4161.54,-6578.63 -5358.83,-7403.51 -950.68,-654.92 -1424.64,-1932.12 -2171.68,-2889.5 -538.58,-690.33 -1915.45,-1600.45 -2650.97,-2419.83 -2374.98,-2645.47 -2221.17,-1785.36 -4042.45,-3504.39 -1574.5,-1486.17 -4094.01,-3032.14 -5853.42,-4405.23 -498.37,-388.9 -838.46,-855.13 -1328.58,-1264.14 -1052.59,-879.19 -1957.55,18.39 -3637.23,-1434.27 -410.38,-355.04 -2797.39,-1473.79 -3456.95,-1630.35 -1175.98,-278.74 -1141.61,-719.2 -3621.76,-1422.41 -679.33,-192.64 -1053.79,-518.3 -1804.26,-797.39 -1544.42,-574.33 -1934.7,-1357.11 -3714.73,-1387.87 -828.84,-14.44 -1193.85,-394.05 -1915.62,-662.66 -474.48,-176.83 -1442.52,-297.82 -2042.62,-433.24 -667.13,-150.71 -1783.99,-60.15 -2402.48,-220.66 -1330.13,-344.9 -2340.61,-1077.51 -4008.6,-1006.36 -2077.85,88.5 -2647.71,-714.21 -4482.9,-709.74 -2521.74,6.19 -1703.9,-129.75 -3191.44,-237.15 -711.46,-51.21 -945.18,154.84 -1478.09,268.09 -581.37,123.73 -833.13,-154.84 -1580.69,-79.74 -1303.83,131.12 -3240.77,-391.3 -4694.97,26.81 -1062.04,305.21 -1317.58,76.65 -3020.28,375.32 -1601.31,280.8 -3372.75,180.1 -5017.88,362.95 -1469.5,163.43 -2916.83,474.82 -4245.58,1024.75 -584.98,242.31 -865.27,179.41 -1465.55,330.99 -551.13,139.2 -748.93,382.71 -1161.54,467.61 -516.76,106.03 -1085.93,2.75 -1646.16,118.06 -1089.88,224.95 -1485.31,824.54 -2325.32,1211.38 -1762.85,811.65 -1139.89,388.04 -2703.56,836.57 -897.23,257.43 -1236.12,884 -2272.21,1253.82 -1144.36,408.49 -2720.23,1597.87 -4577.77,2410.55 -1070.63,468.29 -1531.88,231.14 -2477.58,1058.26l-2069.95 1473.79c-1434.61,779.86 -962.71,839.84 -1848.09,1566.77 -697.72,573.29 -1392.34,699.43 -2129.92,1404.71 -726.59,694.79 -704.76,1298.85 -1662.49,1861.32 -537.38,315.17 -641,199.35 -1100.19,684.65l-2656.47 2522.94c-783.12,511.6 -350.75,252.96 -847.05,932.29 -225.12,308.13 -595.98,616.95 -884.35,880.74 -768.86,703.56 -935.38,1030.59 -1914.25,1620.73 -475.86,286.82 -1993.82,2203.99 -2379.45,2811.31 -382.54,602.68 -325.83,1333.91 -1134.39,2407.12 -593.4,787.25 -1273.93,569.17 -2490.29,2820.42 -222.55,411.93 -305.04,800.83 -548.38,1218.42l-1300.4 2116.17c-242.65,412.96 -336.14,886.58 -554.05,1223.58 -294.38,455.75 -441.83,389.93 -708.89,1075.79l-1546.66 3713.18c-180.96,421.03 -234.23,904.45 -455.06,1334.42l-1577.25 3606.29c-412.1,1014.09 -349.89,1677.61 -924.39,2613.85 -508.51,829.01 -40.04,1264.82 -663.34,2875.58 -341.3,882.45 -442.17,1968.38 -539.1,2991.93 -108.61,1146.25 -580.68,1627.43 -587.39,2813.03 -20.28,3465.55 -480.15,3485.31 -481.87,4838.98 -0.86,858.05 -141.78,975.6 -207.42,1567.8 -59.98,541.33 119.78,987.11 86.61,1619.01 -30.07,577.93 -202.44,1009.97 -232.17,1543.05 -58.77,1053.45 105.86,2024.92 3.95,3184.74 -111.53,1269.29 218.08,2107.58 321.36,3184.74 105.52,1102.25 56.37,2330.13 132.67,3404.88 74.24,1042.1 690.15,1895.86 782.61,2721.6 185.77,1662.49 -7.73,1167.9 417.6,2992.61 496.31,2128.03 93.32,2182.16 605.09,2970.27l958.07 2561.78c131.98,443.89 239.9,899.47 380.65,1387.35 126.65,439.59 354.53,839.49 423.78,1324.8 186.63,1306.07 283.73,1573.3 831.07,2638.77 157.07,305.38 445.09,830.9 651.14,1111.36 403.16,547.69 295.76,508.85 511.08,1245.4l2220.66 4881.6c841.04,1428.77 1488.57,3202.44 2489.09,4448.71 274.62,341.98 458.67,580.68 730.88,1044.17 368.62,627.77 540.64,534.63 809.42,954.8 297.82,466.06 292.66,683.62 651.66,1118.75 298.85,361.92 507.48,596.84 778.14,981.44 694.97,988.32 1420.52,2005.16 2272.04,2929.37 300.74,326.17 642.04,551.47 907.72,859.08 257.26,297.82 438.39,744.29 687.75,1094 1455.23,2040.39 560.41,942.43 2471.05,2824.03l3486.68 3477.23c979.04,710.09 1446.99,1637.91 2741.02,2564.36 452.48,324.11 608.01,404.19 922.84,799.79zm14072.02 -113379.2c774.7,-406.08 862.69,-1358.83 1888.99,-1542.36 870.43,-155.35 675.89,-182.51 1206.74,-599.07 500.95,-393.2 719.71,-243.68 1341.13,-425.85 563.67,-165.15 600.79,-476.89 985.74,-674.17 535.14,-274.27 976.8,25.78 1646.33,-74.07 597.7,-89.19 793.78,-405.22 1307.61,-481.18 699.43,-103.63 1007.91,172.37 1585.33,246.78 1477.06,-1982.13 2508.68,-1380.31 3658.88,-1581.89 2127.17,-372.92 3736.21,-20.79 4690.16,-419.49 1798.94,-751.85 4203.99,-807.53 6278.75,-521.74 1134.22,156.21 2274.28,-320.33 3337.86,-204.85 629.15,68.22 675.89,216.19 1553.02,213.44 764.39,-2.23 874.89,81.63 1405.74,374.98 335.97,185.77 2412.44,912.01 2729.34,926.62 548.55,-1185.94 1160.51,-1173.4 2510.06,-652.86l2904.11 910.29c1137.14,299.36 2450.08,-282.01 3431.18,101.91 541.33,211.89 656.3,678.64 1064.79,833.31 631.72,239.04 1109.47,-126.65 1718.68,-43.65 548.72,75.1 853.93,410.55 1348.17,516.41 902.39,193.33 1370.51,168.93 1890.36,892.25 322.91,449.56 21.48,272.73 565.22,411.41 630.18,161.2 914.59,171.85 1625.54,286.13 991.41,159.13 1610.59,1032.14 2433.07,1298.85 559.2,181.3 975.6,190.93 1369.14,510.57 491.49,399.04 331.16,618.49 1099.5,916.65 514.69,199.86 996.22,202.1 1557.31,361.92 494.93,140.92 670.39,508.68 1056.37,788.97 766.11,556.45 1672.63,609.21 2505.42,1267.23 1049.49,829.87 1716.45,473.79 2471.9,1291.8 637.74,691.01 2350.92,1815.61 3177.87,2490.46l1577.42 1262.93c1046.06,647.71 670.56,426.36 1336.83,1460.56 290.6,451.28 797.9,485.99 932.64,939.68 214.64,724.01 -184.22,924.21 548.2,1382.37 937.45,586.53 1724.18,418.8 2577.94,1302.8 415.88,430.49 2593.23,2477.58 2763.02,2878.68 314.66,743.94 62.55,731.57 658.7,1244.89 370.68,319.13 745.66,463.65 1065.13,822.31l1584.64 2189.55c861.15,1339.92 1011,776.42 1881.25,2821.45 106.89,251.42 123.39,477.75 235.61,714.56 196.43,414.16 598.9,627.26 911.33,980.58 254.51,287.85 742.4,1337.86 1502.84,2270.32 353.84,433.24 394.74,749.61 625.88,1268.6 266.2,598.73 450.08,1365.36 827.29,1985.57l1092.28 1870.08c288.02,692.04 108.95,931.43 267.06,1641.35 80.94,363.46 391.48,752.02 531.36,1344.39 161.54,683.8 171.51,845.34 459.01,1410.21 1227.7,2412.62 2462.97,5875.41 2871.46,8558.87l609.38 3179.24c229.42,1099.85 259.32,4078.2 303.49,5360.03 23.89,684.31 234.23,931.95 253.65,1759.93 28.87,1233.2 -254.34,2525.87 -92.46,3632.41 72.86,497.85 346.62,3007.05 313.11,3437.54 -61.69,786.39 -520.71,610.41 -708.37,3071.84 -51.38,669.36 -193.85,999.66 -353.15,1530.33 -147.28,491.15 -89.02,1104.66 -262.93,1630.01 -241.11,729.85 -439.94,597.53 -341.81,1552.16 62.21,603.88 230.11,1013.06 76.13,1725.04 -142.29,660.25 -395.26,2739.82 -648.91,3128.89 -804.43,1234.92 -957.04,2736.38 -1474.83,4152.26 -392.34,1072.69 -949.65,3496.48 -1623.82,4184.92 -395.77,403.68 -567.45,421.03 -762.16,1098.82 -392.51,1366.39 -126.14,1423.44 -1048.12,2746.18 -508.85,730.19 -238.01,647.19 -561.09,1340.61 -252.62,542.88 -379.1,423.1 -576.56,1272.21 -185.77,798.76 -262.93,715.93 -634.3,1278.57 -490.46,743.94 -753.22,1878.16 -1400.59,2372.4 -915.45,698.75 -757.18,1425.16 -1395.77,2371.72 -398.87,590.65 -1212.92,1867.85 -1582.75,2189.9 -1252.11,1090.22 -1473.79,2108.78 -2632.59,3152.09l-977.66 907.55c-365.7,453.34 -351.61,867.16 -647.19,1241.28 -242.65,306.58 -230.62,203.13 -545.63,394.91 -937.79,570.37 -1499.23,1742.23 -2291.63,2427.91 -366.04,316.55 -817.15,336.31 -1259.67,606.29 -639.97,390.45 -374.81,637.91 -849.97,1053.62 -542.71,474.82 -1067.54,761.47 -2039.7,1736.21 -340.95,341.81 -555.08,601.82 -1008.42,861.66 -1768.86,1014.95 -733.98,362.61 -2251.59,1539.96 -358.48,278.23 -775.05,483.07 -1150.2,731.74 -749.61,497.34 -1457.47,1164.81 -2315.35,1571.58 -1255.37,595.29 -2320.33,1439.94 -3470.02,2199.01 -1178.73,778.14 -2588.59,1190.93 -3910.13,1735.18 -1615.4,665.06 -2616.6,1019.08 -4299.71,1463.83 -467.61,123.73 -1240.94,63.41 -1677.95,232.17 -792.92,306.41 -1591.34,1048.63 -2569.17,1189.55 -1572.61,226.33 -3097.61,581.89 -4614.37,1051.56l-3146.76 711.29c-641.86,55.68 -1141.09,117.55 -1763.71,100.53 -959.96,-25.95 -2560.06,177.87 -3475.86,350.23 -1766.46,332.02 -3687.75,126.65 -5496.65,126.14l-3579.31 191.27c-532.22,24.92 -591.85,-274.27 -1591.34,-143.84 -828.84,108.27 -1665.75,-426.19 -3050.36,-540.3 -1057.91,-87.13 -2102.77,-389.41 -3108.1,-589.62 -655.44,-130.61 -857.54,-277.88 -1468.81,-417.94 -587.73,-134.56 -1149.34,-91.77 -1779.52,-238.7 -491.67,-114.28 -983.68,-237.15 -1571.75,-337.52l-2962.2 -816.12c-655.78,-136.97 -833.65,-300.74 -1377.9,-516.07l-2564.19 -1176.66c-569.17,-343.19 -751.85,-295.41 -1351.44,-524.32 -458.67,-175.12 -779,-355.22 -1326.69,-580.51 -1272.21,-523.46 -2385.98,-1334.59 -3744.8,-1913.22l-3505.24 -2129.92c-1266.2,-665.06 -2197.8,-1629.83 -3497.85,-2300.05 -812.51,-418.97 -1513.49,-1000.69 -2232.17,-1541.5 -571.75,-430.66 -548.55,-354.18 -1035.4,-854.27 -358.14,-368.1 -730.71,-467.43 -1076.65,-809.07 -626.22,-619.18 -1178.73,-1334.25 -1889.33,-1883.66 -715.07,-552.84 -1458.67,-1092.63 -2055.51,-1717.14 -304.35,-318.61 -499.91,-724.01 -820.42,-1062.38l-870.43 -1021.65c-280.46,-333.05 -681.73,-578.79 -1005.33,-882.45 -1278.23,-1200.04 -760.61,-647.71 -1743.43,-2027.33 -332.02,-466.23 -601.13,-423.1 -934.87,-950.85 -482.04,-762.16 -396.29,-500.77 -973.88,-1033.68 -460.56,-424.82 -395.43,-609.56 -721.95,-1163.26 -377.04,-639.11 -447.5,-291.8 -818.53,-1071.66l-1512.46 -2260.7c-745.49,-768.86 -721.77,-1588.25 -1416.57,-2352.64 -364.84,-401.44 -1106.38,-1906 -1404.54,-2487.2 -266.71,-519.68 -335.62,-844.48 -558.17,-1353.84 -242.14,-554.39 -552.16,-616.95 -784.67,-1074.41 -571.92,-1125.28 -1507.99,-4390.62 -2070.8,-5459.53 -817.32,-1552.33 -1196.25,-3956.35 -1916.83,-5755.12 -438.91,-1095.72 -367.25,-1979.9 -667.3,-3117.03 -440.28,-1666.95 -976.11,-2774.02 -1085.24,-4624.85 -36.78,-625.19 -207.08,-992.44 -239.39,-1652.35 -114.28,-2335.97 -299.54,-4719.54 -555.42,-6971.14 -51.21,-452.31 85.41,-1206.39 132.15,-1753.4 195.05,-2278.4 -479.81,-1204.16 395.77,-5171.34 159.31,-721.26 -36.09,-1095.03 43.65,-1779.86 68.22,-586.18 202.61,-870.25 217.56,-1656.47 24.23,-1262.59 363.98,-2101.22 543.39,-3275.31 442.17,-2897.06 1165.49,-3787.94 1286.82,-4406.09 329.09,-1674.69 -58.94,-2776.94 1135.76,-4638.09 860.97,-1341.81 545.28,-2816.98 1639.97,-4006.19 637.74,-692.9 230.8,-531.88 478.78,-1439.08 102.77,-375.32 453.34,-525.18 684.31,-1190.58 191.61,-553.53 254.51,-934.87 536.35,-1452.83 282.01,-518.47 1666.78,-3297.82 2002.24,-3654.93 348.51,-371.37 626.57,-443.72 956.69,-937.28l1520.37 -2244.37c608.7,-1095.72 526.21,-1500.77 1420.35,-2352.64 459.87,-438.39 460.73,-577.08 830.56,-1057.57 526.38,-683.8 1261.73,-1279.77 1806.84,-1965.12 352.29,-443.2 384.95,-701.84 804.95,-1081.63 1562.47,-1413.3 1254.34,-1984.88 2856.85,-2800.14 596.67,-303.49 632.41,-473.97 975.77,-1033.17 363.12,-591.17 464.17,-492.01 1071.49,-815.95 456.61,-243.34 587.9,-521.57 1076.13,-805.81 867.5,-505.24 1599.93,-909.09 2011.69,-1780.03 662.31,-1401.27 1971.99,-1627.94 3122.53,-2517.45 359,-277.54 804.43,-644.1 1137.65,-871.8 384.77,-262.42 820.42,-439.59 1203.3,-674.34 536,-328.58 579.14,-347.65 1274.45,-595.46l1780.72 -1056.37c1163.77,-695.31 1231.14,-1463.14 2940.54,-1743.77 720.23,-118.23 883.49,-235.44 1387.01,-544.6 798.76,-490.81 681.9,61.01 1305.72,295.07zm28181.84 162891.71c757.18,85.58 495.1,370.51 2012.89,394.4 942.6,14.78 675.37,563.67 1874.89,516.24 1073.04,-42.28 1093.66,-196.25 2138.86,-40.9 927.14,138 1020.62,-314.14 1790.34,-452.83 836.06,-150.54 1173.05,218.94 2131.47,11.86l1956.01 -275.31c1625.19,-252.45 1297.47,-743.26 3894.14,-671.77 1453.34,40.21 1239.22,-501.46 1780.89,-578.97 568.31,-81.46 993.13,464.17 1824.89,244.54 174.26,-46.06 1644.79,-530.85 1767.14,-597.87 1439.77,-788.8 3782.61,-632.76 5558.35,-1286.99 808.73,-297.99 1172.2,-196.77 2027.33,-316.55 604.92,-85.07 965.8,-498.88 1579.83,-623.65l2868.88 -699.26c1470.19,-669.7 1798.42,-250.22 2818.87,-729.51 1193.68,-560.41 1453.34,-1281.49 3020.28,-1541.5 2412.1,-400.24 2070.29,-857.54 3011.86,-1628.63 365.18,-299.02 1027.33,-326.69 1562.13,-666.95 713.87,-454.2 860.46,-379.45 1654.58,-711.81 431,-180.27 1050.87,-465.2 1547.35,-678.81 1368.28,-588.42 947.59,-1418.97 3059.98,-1517.96 1334.42,-62.73 1703.73,-1697.2 4183.02,-2811.48 680.01,-305.38 829.01,-481.35 1348,-896.2 668.33,-534.28 836.23,-423.78 1515.9,-838.98 477.4,-291.63 651.66,-668.16 1296.62,-1065.65 495.79,-305.38 1113.59,-488.57 1448.7,-913.9 659.22,-836.91 36.78,-445.95 1079.4,-1139.37 558.86,-371.71 816.46,-766.63 1315.52,-1042.79 541.16,-299.71 963.05,-477.4 1428.94,-818.35 522.43,-382.2 732.6,-738.79 1190.24,-1180.27 518.3,-499.74 752.54,-455.23 1391.65,-841.21 1322.05,-798.25 1296.79,-1344.56 2275.65,-2330.47 1044.34,-1051.9 1067.71,-1467.78 2433.58,-2157.07 1747.38,-881.6 1533.08,-1595.81 2369.48,-2219.63l709.92 -374.64c842.24,-531.36 757,-1437.88 1382.37,-2151.06 1065.82,-1215.5 2971.3,-2667.99 3186.63,-3059.98l186.63 -639.46c258.81,-1022.86 975.08,-1503.01 1660.42,-2112.91 25.61,-22.86 94.69,-92.97 118.58,-117.37l1545.46 -1279.6c578.11,-465.89 350.23,-997.59 705.1,-1685.34 223.92,-433.41 573.29,-888.47 848.6,-1376.35 420,-743.77 295.24,-824.88 901.53,-1443.89 936.24,-956.35 1199.18,-1932.98 1868.02,-2734.66 423.44,-507.65 617.8,-703.56 854.96,-1411.24 312.43,-932.29 843.79,-1468.81 1226.16,-2301.08 121.15,-263.28 180.44,-494.93 307.1,-752.02 227.19,-460.39 674,-801.51 1024.06,-1326.17 481.87,-722.63 437.02,-576.56 757.35,-1483.25 141.78,-401.96 598.39,-1137.48 847.4,-1501.81 362.09,-529.82 472.59,-1066.51 676.58,-1677.78 457.47,-1371.89 1000.86,-1771.44 1456.78,-3144.87 299.19,-901.19 59.8,-963.91 583.09,-1781.58 357.62,-558.52 484.62,-764.22 740.51,-1492.18 371.2,-1055.17 691.53,-734.15 979.38,-1371.37 482.39,-1066.51 558.86,-2588.76 1074.07,-3533.43 272.21,-499.4 329.95,-1090.57 550.44,-1699.09 650.63,-1793.44 638.6,-855.99 1008.42,-3597.87 101.56,-753.74 347.83,-1014.09 517.79,-1846.02 357.28,-1749.44 1218.25,-3363.12 1269.81,-5583.44 23.2,-1000.34 230.11,-1105.69 372.92,-1963.05 108.27,-651.32 151.23,-1416.4 256.75,-2137.83 93.49,-639.63 383.23,-1192.47 497.34,-1875.07 174.09,-1042.28 148.31,-804.26 80.6,-1924.39 -61.35,-1016.84 229.94,-1363.47 201.58,-2117.55 -34.54,-918.03 -270.15,-959.62 147.96,-1834.17 627.94,-1313.63 -136.62,-2830.56 280.12,-4102.25 445.09,-1357.79 90.74,-5054.82 13.4,-6693.42l251.07 -4360.89c42.62,-1074.93 -400.07,-2831.76 -556.97,-4050.7 -92.97,-723.66 55.68,-1479.29 -82.83,-2157.76 -119.26,-582.23 -327.55,-1289.4 -350.23,-2035.92 -53.45,-1750.65 -454.37,-2942.43 -555.42,-4126.14 -83.18,-970.79 -292.66,-1047.78 -489.09,-1738.62 -306.41,-1077.85 95.03,-1640.32 -846.71,-3741.88 -283.55,-632.93 -271.87,-1150.37 -499.74,-1847.23 -378.93,-1158.96 -604.74,-2439.77 -835.88,-3751.85 -127.86,-725.73 -502.84,-819.9 -555.08,-1661.63 -45.54,-739.65 30.07,-451.8 -267.06,-970.1 -187.49,-327.03 -217.05,-453.86 -317.58,-858.22 -98.81,-395.94 -128.72,-572.78 -265.51,-909.09 -171.51,-422.07 -203.13,-341.12 -385.63,-683.97l-683.97 -1667.99c-287.16,-569.34 -322.56,-1042.28 -548.38,-1689.47 -345.08,-987.97 -1225.64,-2069.77 -1486.85,-3086.79 -520.36,-2025.44 -437.36,-1779.69 -1622.27,-3023.55 -1313.29,-1378.24 -1691.36,-4409.35 -3011.34,-6180.28 -858.05,-1151.23 -1293.87,-2119.78 -1871.46,-2735.01 -815.09,-868.19 -1082.83,-1856.68 -1823.34,-2776.25l-1947.24 -2650.29c-622.27,-960.65 -1336.31,-1666.1 -1991.58,-2610.24 -376.53,-542.88 -583.78,-880.39 -998.8,-1356.25l-2055.68 -2543.74c-239.9,-234.06 -431.69,-320.16 -628.97,-551.64 -565.73,-663.34 -920.26,-1372.92 -1576.56,-1960.3 -793.95,-710.26 -1360.72,-1735.52 -2112.74,-2485.48 -388.56,-387.87 -822.99,-673.14 -1154.67,-1084.72 -418.8,-519.68 -377.9,-935.73 -941.23,-1419.32 -304.52,-261.56 -347.48,-223.92 -619.35,-555.59 -994.85,-1213.1 -1997.25,-1672.8 -3044.68,-2618.32l-1126.66 -1231.66c-724.7,-771.95 -1962.02,-1148.82 -2706.14,-1892.42 -1291.63,-1290.77 -1255.54,-1075.79 -2621.07,-1996.56 -500.6,-337.69 -523.11,-681.9 -1212.92,-1033.17 -641.86,-326.86 -971.47,-400.93 -1444.75,-888.3 -389.24,-400.58 -754.6,-855.65 -1141.61,-1218.6 -601.48,-564.01 -725.9,-500.6 -1623.82,-776.59 -934.7,-287.16 -2791.38,-2281.15 -3796.53,-3003.27 -480.15,-344.73 -1066.34,-504.04 -1676.58,-720.57 -1009.97,-358.31 -2050.18,-1078.88 -2976.12,-1580.34 -475.17,-257.26 -1149.34,-379.1 -1680.87,-568.65 -1000.52,-356.42 -765.6,-440.63 -1423.96,-930.06 -497.68,-370.17 -1070.29,-371.2 -1706.82,-567.28 -526.04,-162.4 -1081.11,-474.65 -1553.19,-782.44 -393.71,-256.57 -1007.22,-819.56 -1293.69,-942.6 -721.43,-309.5 -1428.25,131.12 -2021.31,-333.91 -787.08,-617.46 -110.33,-452.14 -1402.99,-860.46 -696.34,-219.8 -1028.7,-400.76 -1541.68,-786.22 -1591.68,-1195.57 -2884.52,-207.77 -3720.06,-996.22 -645.3,-608.52 -567.8,-463.31 -1589.45,-662.31 -562.98,-109.64 -1303.32,-297.13 -1940.2,-416.91l-2493.21 -928c-324.45,-165.84 -456.61,-293.18 -814.06,-365.53 -890.88,-179.93 -1022.34,102.42 -1886.58,-345.59 -866.99,-449.56 -793.61,-394.05 -1976.29,-439.77 -853.76,-33.17 -2479.29,-710.09 -3882.46,-734.15 -361.06,-6.36 -809.07,43.31 -1155.53,-10.83 -297.99,-46.4 -460.56,-198.83 -751.16,-275.31 -1010.83,-266.37 -1009.45,269.12 -1943.81,-385.98 -588.76,-412.61 -1185.6,-267.92 -2056.03,-265.68 -1471.56,4.12 -2522.43,-582.57 -4001.89,-585.32 -1136.79,-2.41 -1152.09,59.98 -2097.61,-220.83 -1860.97,-552.67 -2384.26,-102.08 -4080.09,77.5 -422.75,44.68 -1274.79,-273.07 -1762.68,-373.78 -100.02,-20.62 -4188.52,-32.82 -4300.74,-15.29 -929.89,143.67 -884.69,323.6 -2025.26,293.69 -971.3,-25.43 -1299.71,99.5 -2045.54,208.46 -1094.35,160.17 -2904.8,674.86 -4099.85,317.41 -979.55,-292.83 -1119.61,-40.38 -2022.86,72.52 -1080.6,134.9 -916.48,187.66 -1538.24,740.51 -788.62,700.98 -1017.87,-209.14 -1611.27,-220.31 -382.71,-6.87 -845.85,474.31 -1685.17,565.56 -729.51,79.57 -1578.28,-14.44 -2328.92,50.18 -929.54,80.25 -963.74,562.81 -1492.01,731.05 -619.87,197.46 -448.7,-340.78 -1836.92,279.26 -1180.44,527.07 -2447.33,568.65 -2823.34,725.73 -1795.16,749.79 -4173.23,1057.23 -4543.4,1220.31 -965.63,424.64 -121.33,243.86 -1597.87,642.72 -806.32,217.91 -969.76,464.86 -1594.78,753.22 -833.13,384.77 -856.33,246.95 -1766.63,468.64 -1135.25,276.51 -2181.13,1052.93 -3212.07,1386.84 -490.46,158.79 -1547,147.45 -1870.08,529.3 -274.96,324.8 -78.71,350.06 -513.83,653.03 -1433.58,997.59 -3708.2,1272.21 -5339.24,2686.89 -644.27,558.86 -2533.77,893.28 -4705.62,2227.02l-1490.98 887.78c-722.81,401.96 -636.36,778.83 -1142.81,1101.05 -1161.2,738.62 -1515.04,-316.03 -2922.67,1673.66 -415.88,587.56 -787.94,204.16 -1378.42,976.29 -220.14,288.02 -251.07,410.9 -573.64,620.73 -260.01,168.93 -464.51,197.28 -669.7,384.09 -208.63,189.55 -273.24,415.54 -544.77,635.68 -678.3,549.92 -1721.78,553.7 -2341.47,1079.57 -840.18,713.01 -1545.11,1518.82 -2394.92,2198.49 -455.75,364.67 -1050.53,531.02 -1451.63,908.06 -349.2,328.06 -739.47,794.81 -1068.23,1172.54 -1481.53,1702.01 -3131.47,3009.28 -4653.9,4660.26 -403.68,437.88 -771.44,753.05 -1183.54,1173.91 -425.5,434.44 -531.71,863.72 -895.69,1348.86 -478.78,638.6 -1689.64,1803.75 -2326.69,2275.31 -799.62,591.51 -474.82,563.67 -999.83,1349.03 -330.47,494.59 -599.42,716.79 -913.73,1318.78 -840.87,1609.73 -1898.78,2540.13 -2974.57,3990.38 -443.72,598.21 -1754.77,2188.52 -1479.64,3050.36 93.32,292.66 482.21,450.42 193.85,714.56 -193.68,177.35 -620.04,95.21 -908.75,156.04 -652.52,137.14 -796.87,730.88 -1117.55,1271.01 -425.85,717.13 -1036.78,1273.59 -1389.42,2018.91 -224.61,475.34 -158.45,339.06 -472.25,705.96l-1717.99 2891.39c-133.18,316.38 -578.28,1426.02 -609.38,1626.05 -176.83,1144.53 -54.65,758.72 -731.05,1622.96l-2291.12 4556.97c-253.82,746.35 -501.46,949.82 -800.14,1553.53 -232.86,470.01 -267.74,1246.44 -457.3,1793.61 -447.16,1290.77 -836.57,1037.46 -1293.69,3332.19 -247.64,1244.03 -1045.71,2229.08 -1122.53,3503.01 -134.73,2234.23 -1140.23,1896.2 -569.17,3494.76 -1026.81,543.74 -540.47,416.91 -930.92,2418.12 -256.4,1312.94 5.5,812.34 -478.95,1970.62 -102.94,246.43 -97.61,269.81 -161.88,565.91 -119.95,553.36 -42.96,815.09 -304.52,1309.33 -210.52,398.01 -334.42,795.84 -372.92,1324.28 -51.56,708.37 -9.11,814.92 -142.98,1462.97l-403.33 2802.03c-156.04,578.45 -245.75,647.88 -317.07,1346.62 -102.08,1002.92 -67.71,2057.74 -94.69,3123.56 -14.61,576.73 -184.91,920.43 -238.01,1403.16 -104.83,953.43 76.47,2208.97 116.17,3121.67 33.17,761.3 -748.58,90.91 -187.49,1018.9 148.48,245.23 289.4,156.21 313.97,474.31 25.95,337.17 -87.47,195.05 -189.55,593.92 -83.35,326 -26.98,472.59 -97.61,749.27 -65.3,256.75 -195.57,317.58 -258.46,544.08 -144.35,518.65 108.78,1089.71 45.54,1640.66 -54.65,477.92 -339.06,819.04 -355.56,1196.25 -13.58,311.05 478.95,1949.65 509.71,2698.23 40.04,979.55 1.89,687.75 302.46,1388.73 515.9,1203.99 -100.19,1051.04 -191.44,1698.4 -55.34,393.02 76.65,231.66 143.15,601.48 108.61,605.6 -288.54,2130.44 -193.16,3025.61 50.7,476.2 257.78,716.1 324.63,1192.65 80.43,570.37 2.75,928 139.71,1516.93 132.15,569.17 278.57,651.66 291.46,1303.66 19.93,1031.79 -75.79,546.66 394.57,1208.11 368.62,518.47 115.48,5002.24 1055.51,6965.29 375.15,783.3 190.24,460.9 169.45,1258.12 -35.75,1366.22 698.92,2511.6 960.48,3857.88 144.18,741.88 430.49,1974.57 754.08,2537.04 563.5,979.04 320.16,1552.85 680.36,2542.54 266.37,732.26 490.63,1609.38 753.74,2401.45 318.96,960.48 641.86,1108.44 844.82,2347.66 278.23,1698.06 896.37,1375.5 1197.29,2084.04 102.94,242.48 142.64,978.52 273.41,1371.54 148.99,448.36 286.82,672.11 465.37,1057.74l1047.09 2272.73c221.69,623.82 157.42,676.06 444.58,1223.75 382.54,729.68 431.17,1717.82 772.13,2391.82 434.27,857.71 1283.56,1539.44 2053.28,2778.83l1041.93 2159.82c314.32,417.08 741.19,303.49 845.16,706.48 119.26,462.28 -158.79,180.96 399.9,926.1 -256.4,681.56 -187.49,1062.04 209.49,1513.66 486.51,553.53 310.53,560.75 656.64,1208.8 297.3,557.48 561.95,483.76 928.17,965.12l790.34 1108.27c273.24,410.04 383.74,807.7 661.8,1227.36 291.8,440.63 452.83,741.88 713.87,1169.1 476.71,780.38 1154.67,1215.16 1702.01,1943.29l3170.65 4255.89c774.88,1065.13 1879.53,1947.42 2718.34,2954.81l936.76 827.46c282.18,309.5 390.45,781.92 711.63,1174.77 308.13,377.04 618.84,538.58 957.73,931.95 1275.82,1481.53 1337.52,1492.35 2809.76,2734.32 348.86,294.38 553.53,687.92 922.84,969.76 508.51,387.87 579.65,266.54 1088.68,790.51 796.87,820.24 2109.81,1756.66 3017.53,2523.46 626.74,529.64 1243.86,1339.75 1872.14,1788.11 467.78,333.91 733.8,399.04 1059.98,822.48 497.85,646.85 189.9,487.88 1099.16,813.54l1912.87 1718.68c521.91,738.62 511.6,301.43 1189.9,703.21 977.14,578.79 4038.5,3016.33 4394.92,3172.54 635.16,278.23 705.96,210.52 1118.58,726.93 777.8,973.19 1053.96,714.56 1757,1098.82 384.43,210.17 -16.15,139.54 435.81,378.07 622.96,329.09 625.19,-173.05 1391.31,493.56 710.43,618.32 777.63,1006.36 1692.9,1142.47 593.57,88.16 249.7,39.35 716.27,228.05 475.34,192.3 329.78,52.41 797.56,139.03 955.49,176.66 2009.45,1216.7 2939.85,1655.44 1026.81,484.28 1493.73,623.65 2477.92,1189.04 406.6,233.55 840.7,427.57 1224.61,663.69 828.67,510.23 688.61,181.3 1446.99,444.92 423.27,147.1 578.45,565.73 1154.15,712.15 948.79,241.28 2010.66,398.18 2796.87,867.68 469.67,280.63 818.01,303.15 1461.42,454.72 1576.22,371.54 1349.2,449.05 2647.19,1006.7 440.63,189.21 985.74,226.33 1343.53,513.32 598.21,479.98 598.73,361.57 1394.74,529.47 507.65,107.06 1028.7,337.17 1540.13,352.81 780.89,24.23 735.35,-426.71 1440.11,-173.23 247.64,89.02 324.28,206.56 590.48,352.47 1043.14,572.26 1737.07,319.47 2130.95,447.5 1030.59,335.28 629.49,1439.6 2365.36,1361.06l777.63 -1060.66c612.65,193.68 1405.23,472.07 1975.6,711.98 701.32,295.24 1993.82,153.46 2364.84,358.65 537.38,296.96 115.14,316.21 1076.82,346.45 1865.1,58.43 4450.94,-94 6332.71,370.85 744.29,183.88 834.34,1099.67 1622.79,944.84 802.89,-157.76 936.42,-757.86 1871.8,-846.19 389.76,-36.95 774.53,117.03 1260.18,120.12 409.69,2.41 884.35,-20.62 1296.1,-41.59l199.52 -503.01c6.01,-44.51 24.23,-57.23 40.73,-83.18zm-265.68 -201075.45c197.28,-352.47 65.13,-609.21 458.5,-832.62 1215.5,-690.5 1809.08,832.1 2979.9,734.83 798.42,-66.51 1045.71,-414.85 2257.95,-334.94 1073.21,70.8 851.35,586.87 1993.47,612.99 1514.69,34.54 3538.41,-423.96 4448.53,486.68 1658.71,1659.05 1432.72,-890.36 5682.6,230.8 902.56,238.01 3071.15,244.37 3640.49,594.09 901.36,553.7 290.94,332.7 1638.94,524.15 1012.03,143.84 2355.22,663.17 3255.2,1074.24 755.29,344.9 961.33,311.74 1600.1,535.14 449.91,157.42 304.35,274.62 647.02,409.18 397.15,156.04 595.81,26.81 1000.69,83.35 532.39,74.24 1728.13,1250.04 2780.03,1549.41 1329.44,378.24 2234.23,189.55 3477.58,771.44 2028.87,949.99 975.08,297.47 2835.2,1525.52 758.55,500.77 1509.02,328.41 2355.56,827.98 241.11,142.46 -53.27,42.79 427.22,189.38 2565.74,782.44 1852.38,1293.01 3277.71,1536.69 1135.94,194.54 761.99,54.13 1529.65,582.92 834.51,574.84 2042.96,838.46 2746.18,1608.53 629.15,689.12 46.92,831.93 1019.08,1115.83 1629.15,475.68 1616.95,798.59 2620.73,1612.82 717.48,581.89 1310.36,114.28 1791.55,454.89 409.35,289.57 332.88,501.8 1176.15,943.98 911.5,477.92 1831.42,1087.3 2337.69,1893.28 458.33,730.19 641.69,513.83 1275.13,982.13 450.08,332.36 648.74,663.52 1027.33,1079.22 256.23,281.84 1292.49,559.2 2765.43,2080.08 287.33,296.27 399.9,741.02 670.73,982.47 188,167.04 508.68,223.23 684.14,375.49 216.7,187.32 190.75,407.63 334.25,696.86 311.91,628.29 728.13,487.37 1394.74,761.82 621.59,256.06 639.46,680.53 1059.81,1053.79 838.29,744.11 1062.21,513.49 2321.71,2042.11 370.68,449.73 550.95,776.42 932.81,1188.52 637.22,687.4 1456.44,828.49 2439.08,1924.73l1796.36 2424.65c385.98,788.28 395.26,639.46 1008.94,1144.87 1143.67,941.74 1971.82,2509.54 3016.67,3460.05 449.05,408.66 616.77,665.06 1006.53,1118.41 693.25,806.67 2062.56,2856.85 2550.78,3921.64 241.97,527.75 409.35,963.22 764.05,1369.48 440.63,504.38 668.16,541.5 990.72,1234.06 127.34,272.9 203.3,485.48 373.6,701.32 1118.92,1418.11 1147.62,1477.57 2048.12,3243.52 486.17,953.09 942.95,1823.85 1461.25,2906.69 722.46,1509.54 1743.94,2599.93 2218.08,4241.97 322.56,1116.69 989.35,1749.79 1410.9,2837.95 210.52,542.88 279.09,1089.54 477.57,1647.71 384.09,1079.4 817.15,2104.49 1238.19,3136.62 899.47,2205.19 384.95,1769.89 791.2,3468.3 261.04,1091.94 1080.43,2340.78 1208.63,3134.91 107.06,664.55 86.44,1246.09 331.16,1809.08 401.27,923.87 299.02,433.41 473.79,1658.71 112.56,790.17 457.81,1816.29 767.14,2521.91l697.03 2490.98c106.89,612.48 156.9,1341.13 235.09,1892.59 112.39,791.55 185.94,1234.92 343.01,1887.44 141.61,588.07 142.98,1349.37 234.06,1889.85 109.81,653.03 280.98,1050.87 374.46,1737.59 86.27,633.1 118.23,1262.93 198.32,1931.09l451.28 3888.3 -178.04 3984.88c-146.59,1112.91 343.36,2579.83 337.34,3990.72 -3.95,893.28 -394.4,2564.53 -436.16,3762.85 -35.23,1009.62 -44.85,1131.98 -254.17,1995.19 -217.56,896.72 58.94,1086.61 -10.14,1877.47 -86.96,994.85 -599.24,2419.83 -690.84,3556.11 -57.4,710.26 71.15,1532.22 -92.8,2139.03 -225.81,834.34 -277.37,819.56 -298.85,1878.85 -34.89,1724.18 -664.55,2055.68 -967.18,3230.45 -165.32,642.04 -18.73,1495.45 -172.19,2080.43 -159.13,606.12 -433.75,970.27 -677.09,1434.1 -456.09,868.53 139.37,921.46 -123.73,1757.52l-861.49 2454.03c-398.52,971.47 -468.12,1616.77 -761.3,2414.51 -244.89,666.78 -727.96,350.06 -739.65,1355.73 -9.11,813.89 13.06,1201.41 -322.39,1816.46 -611.79,1121.84 -865.1,2854.96 -1104.83,3259.84 -1233.55,2081.46 -532.05,1300.05 -1299.71,2944.84 -465.54,997.42 -922.15,1314.66 -1485.65,2887.96 -406.43,1135.25 -1119.27,1683.8 -1541.16,2681.05 -687.58,1625.37 -423.44,1334.42 -1613.68,2758.04 -1499.92,1793.61 -474.14,1293.69 -1385.63,2856.85 -572.95,983.16 -912.87,1901.36 -1539.61,2825.06 -339.92,500.77 -698.92,692.04 -951.2,1166.87 -298.51,562.12 -243.17,941.23 -674.86,1452.83 -680.7,806.32 -1775.05,1234.23 -2265.17,2095.04 -294.38,516.93 -370.68,995.88 -634.99,1489.26 -283.55,530.16 -647.19,693.76 -1022,1098.47 -1201.58,1296.62 -863.55,1070.8 -1853.41,2510.06 -1158.79,1685.17 -1744.97,1026.64 -1428.6,2586.7 -751.5,542.02 -758.03,198.83 -1463.14,531.88 -302.46,142.64 -677.61,660.25 -967.86,922.67 -654.92,592.03 -1398.52,1284.41 -1933.84,1959.96l-1876.27 2011.17c-586.18,514.52 -1839.84,1101.74 -2165.84,1736.04 -350.23,681.39 -69.6,731.4 -852.04,1130.78 -1698.92,866.99 -755.46,1364.15 -1993.99,1893.11 -278.74,119.26 -3577.59,2854.27 -4346.97,3315.52 -1509.2,904.62 -1017.7,1719.88 -1893.97,1964.77l-1337.34 589.11c-464.17,305.04 -766.97,462.11 -1201.24,807.53 -1031.11,819.9 -3125.45,1394.06 -3872.83,1905.14 -538.75,368.79 -74.41,459.19 -1022.69,975.6 -436.67,237.84 -655.78,562.64 -1029.39,864.75 -627.43,507.48 -2036.78,670.91 -2868.54,1004.64 -633.96,254.34 -1197.11,797.04 -1800.48,1158.28 -357.11,213.61 -310.88,118.92 -661.8,275.99 -613.68,274.62 -428.6,563.84 -1211.55,788.45 -826.78,237.5 -736.55,214.13 -1381.68,516.58 -548.72,256.92 -845.34,127.86 -1410.38,482.9 -399.04,250.73 -688.78,586.53 -1047.78,834.68 -396.12,273.93 -984.53,171.34 -1565.22,428.08 -421.03,186.11 -862.18,454.55 -1345.59,511.77 -2726.93,322.56 -1605.26,672.11 -2909.95,1008.94 -645.47,166.87 -1140.92,-36.95 -1748.24,266.88 -692.56,346.8 -197.8,396.63 -1256.57,600.45 -1160.68,223.41 -25.78,469.15 -1348.51,658.7 -606.12,86.96 -1175.12,8.25 -1783.3,120.98 -635.33,117.55 -949.99,323.08 -1549.24,454.89 -693.42,152.78 -960.3,-10.31 -1565.39,336.66 -927.48,531.54 -2008.59,443.72 -3066.51,837.95 -1276.68,475.68 -4219.11,144.01 -5227.19,551.13 -392.68,158.79 -1010.83,634.65 -2194.02,753.74 -340.26,34.03 -573.64,-42.45 -935.38,-20.11 -640.49,39.7 -791.55,240.08 -1644.96,253.14 -1003.27,15.29 -883.49,33.34 -1713.35,297.47 -570.2,181.82 -1039.53,-45.88 -1712.67,-54.13 -1439.94,-17.7 -693.59,-551.47 -3354.87,54.65 -1543.39,351.44 -1859.77,104.31 -3481.87,133.87 -694.28,12.55 -1328.75,135.42 -1886.75,137.65 -605.77,2.58 -1008.94,-205.36 -1777.11,-144.7 -693.93,54.65 -896.72,449.73 -1609.56,335.11 -516.07,-82.66 -554.56,-405.91 -1440.8,-467.95 -1133.36,-79.57 -765.77,87.3 -1664.2,-299.54 -543.05,-233.89 -2770.41,-275.82 -3465.03,-135.07 -540.47,109.47 -1232,42.28 -1834.85,33.51 -255.54,-262.76 -446.13,-615.05 -848.26,-677.44 -843.1,-129.92 -360.89,537.03 -2335.8,305.89 -683.8,-79.91 -518.82,-598.73 -3266.2,-1096.24 -1032.31,-186.8 -703.39,-453.86 -2329.78,-495.62 -586.18,-1033 -950.51,-169.96 -1914.59,-531.19 -620.55,-232.69 35.06,-204.85 -975.6,-311.39 -623.99,-65.99 -423.78,-122.01 -846.37,-362.26 -572.78,-325.31 -1297.99,-326.35 -2035.06,-449.22 -1024.4,-170.99 -1399.04,114.45 -2140.92,22.34 -485.14,-60.15 -1659.22,-336.48 -1796.19,-640.49 -197.8,-437.88 433.92,-420 -265.34,-743.26 -338.03,-156.21 -650.46,-21.48 -983.16,-198.49 -224.95,-119.61 -430.66,-411.24 -694.97,-577.25 -246.09,-154.49 -526.38,-225.98 -772.81,-403.68 -449.73,-324.45 -758.03,-639.8 -1356.25,-1003.61 -532.57,-324.28 -1204.33,-400.58 -1881.08,-619.52 -1568.83,-507.48 -1226.84,-847.4 -3475.69,-1350.58 -572.44,-127.86 -2745.32,-1276.51 -3180.62,-1625.02 -251.93,-201.58 -332.19,-315.86 -748.07,-404.71 -2560.24,-547 -1346.11,-479.29 -2410.9,-1284.07 -571.92,-432.21 -786.91,-568.31 -1524.15,-833.65 -662.14,-237.84 -1040.56,-559.55 -1449.73,-1021.14 -459.36,-518.47 -2220.83,-1728.31 -2865.44,-1980.75 -1206.91,-472.25 -646.68,-244.37 -1461.94,-883.31 -251.07,-196.6 -509.54,-313.8 -777.28,-523.46l-2090.4 -1438.39c-574.84,-413.82 -750.3,-741.88 -1279.95,-1204.68 -495.62,-432.89 -807.87,-624.68 -1352.98,-1001.72 -1083.86,-750.13 -3012.72,-2434.78 -3901.88,-3410.9 -572.09,-627.94 -874.21,-281.84 -1428.08,-931.6 -690.15,-809.59 -971.47,-689.29 -1393.02,-1087.99 -182.85,-172.88 -222.89,-515.21 -385.98,-765.77 -144.87,-222.2 -390.45,-370.34 -583.09,-614.37 -375.32,-475 -442.86,-1295.24 -1031.28,-1475 -1064.79,-325.66 -677.61,210.69 -1819.56,-502.84 289.74,-964.43 -656.13,-1789.31 -1402.13,-2619.52 -367.59,-409.18 -430.66,-768.86 -868.36,-1251.76 -636.88,-702.87 -1682.42,-1059.81 -2188.35,-1938.14l-2618.67 -3514.01c-876.1,-836.06 -1090.22,-1429.97 -1642.21,-2477.4 -262.42,-498.2 -700.81,-672.62 -937.45,-1171.68 -645.82,-1361.58 -1656.99,-2441.14 -2526.21,-3630.7 -407.11,-557.48 -326.17,-922.84 -887.09,-1223.58 -371.89,-199.86 -346.28,-102.94 -679.67,-388.21 -219.11,-187.83 -264.48,-269.63 -501.63,-436.33 288.88,-785.7 636.36,-524.49 320.33,-1385.63 -206.91,-563.33 -387.7,-819.56 -667.3,-1219.45 -178.9,-256.4 -288.71,-347.14 -442,-613.51l-3058.09 -5642.38c-801.51,-2362.44 -2033.86,-4550.44 -2703.56,-6985.91 -168.76,-613.85 -475.86,-621.24 -692.73,-1320.67 -185.6,-598.56 -176.15,-903.59 -455.75,-1428.94 -601.31,-1129.58 -1190.24,-3053.45 -1329.61,-4437.02 -65.65,-652.52 -342.84,-938.48 -428.42,-1457.12 -142.64,-864.93 -46.57,-913.04 -362.95,-1681.05 -172.37,-418.63 -344.9,-784.84 -549.75,-1308.99 -815.6,-2085.07 -906.51,-4017.53 -1307.61,-6317.59 -103.8,-594.09 -326.52,-1057.91 -391.13,-1632.07 -68.05,-604.57 -35.06,-1204.85 -144.7,-1802.55 -104.31,-570.55 -232.51,-1097.78 -352.64,-1634.13 -219.8,-980.24 -85.24,-785.36 -62.73,-1629.32 26.47,-989.86 -158.27,-2560.06 -374.81,-3445.1 -423.61,-1732.26 55.85,-2414.85 -283.9,-3257.26 -323.42,-802.54 50.01,-712.32 -80.25,-1656.47 -78.19,-567.8 -135.42,-1120.98 -123.9,-1784.67 11.86,-693.93 121.5,-1067.02 103.11,-1881.94 -14.95,-671.59 -52.59,-1157.42 -96.75,-1769.55 -101.39,-1406.6 -68.4,-6465.21 254.34,-7503.01 244.37,-785.02 269.29,-778.83 147.62,-1773.33 -45.71,-373.6 455.41,-2798.77 584.64,-3161.89 380.31,-1067.71 95.21,-2285.45 521.57,-3395.6 420.86,-1094.69 189.38,-2243.17 471.04,-3275.31 242.65,-890.53 848.94,-2115.49 934.01,-2935.21 47.26,-455.23 42.28,-1290.43 186.97,-1703.9 127.17,-363.64 434.78,-760.96 644.78,-1341.64 234.06,-648.05 238.53,-903.25 333.05,-1564.36 88.68,-619.18 1586.36,-5395.61 1840.7,-5827.12 642.72,-1089.02 735.18,-2213.44 1068.74,-2828.5 728.3,-1343.87 929.54,-2475.69 1109.64,-2783.47 318.96,-545.46 359.86,-707.34 655.1,-1357.28 441.66,-973.36 900.33,-1441.49 1302.8,-2454.72 161.37,-406.08 457.64,-692.56 723.84,-1174.43 416.05,-753.74 876.1,-1967.52 1360.03,-2527.58 676.92,-783.12 2220.83,-4049.32 2582.58,-5180.28 274.62,-857.88 279.6,-732.09 744.63,-1276.17 927.48,-1085.24 1809.08,-1981.44 2532.57,-3234.41 768.86,-1331.16 2301.08,-2661.63 2582.23,-3294.04 307.79,-693.08 265.34,-754.08 711.29,-1209.83 916.48,-936.76 917,-1082.66 1645.82,-2127.86 541.85,-777.28 1424.99,-1295.24 1830.56,-2060.49 278.57,-525.86 1362.95,-1804.44 1837.6,-2056.37 742.57,-394.74 462.28,-438.74 960.3,-1037.98 1059.98,-1275.13 945.18,-904.97 2022.51,-1750.82l4102.08 -3684.14c961.68,-805.12 2259.5,-1735.01 3401.27,-2365.87 439.94,-242.83 853.24,-420.18 1133.7,-766.46 354.36,-438.22 353.67,-758.72 808.9,-1071.83 653.38,-449.05 617.63,-176.15 1155.01,-851.87 279.43,-351.26 535.66,-656.13 969.76,-907.37l2430.14 -1474.31c928.34,-520.02 4214.65,-2429.8 4759.07,-2900.84 716.27,-619.87 1504.21,-1087.13 2210.35,-1683.11 696.17,-587.56 769.72,-146.76 1528.61,-471.22 356.76,-152.95 199.69,-162.74 700.12,-270.84 1175.46,-253.82 1040.04,-872.49 1902.22,-1036.95 1483.42,-283.38 1422.93,-424.47 2735.87,-1024.23 532.74,-243.68 706.48,-447.33 1189.55,-698.75 494.59,-257.43 1000.69,-365.36 1403.51,-596.84 493.38,-283.73 487.54,-432.89 1172.54,-717.65 562.64,-233.89 1052.59,-175.29 1539.44,-456.44 380.13,-219.28 854.61,-462.28 1310.19,-566.25 715.59,-163.26 984.71,-13.06 1676.06,-340.09 739.47,-349.54 445.09,-328.58 1458.67,-434.61 2577.76,-269.46 2470.7,-1102.6 4361.75,-1374.64 488.23,-70.29 997.25,-337.34 1453.52,-415.88 1191.61,-204.16 691.36,112.73 1575.53,-475.34 272.38,-181.13 1108.27,-272.9 1531.02,-345.25 847.05,-145.21 2224.78,-170.65 3379.11,-513.32 1589.97,-471.73 1561.78,-235.44 2678.64,517.96 666.09,-431.17 603.71,-943.81 1494.24,-1317.93 724.87,-304.52 1420.69,-457.12 2165.32,-80.08 993.64,503.18 988.66,-28.36 1964.43,-377.04 778.31,-278.23 1587.39,-164.63 2515.04,-189.21 998.45,-26.29 1600.62,-174.26 2711.98,-141.43 985.39,29.21 1934.01,418.63 2305.38,329.09 748.93,-180.44 1152.6,-631.9 2254.86,-398.69 822.14,174.26 1046.57,730.54 1892.59,738.79z"/>
  </g>
 </g>
</svg>
