<?xml version="1.0" encoding="UTF-8"?>
<!DOCTYPE svg PUBLIC "-//W3C//DTD SVG 1.1//EN" "http://www.w3.org/Graphics/SVG/1.1/DTD/svg11.dtd">
<!-- Creator: CorelDRAW 2021.5 -->
<svg xmlns="http://www.w3.org/2000/svg" xml:space="preserve" width="144.297mm" height="51.5372mm" version="1.1" style="shape-rendering:geometricPrecision; text-rendering:geometricPrecision; image-rendering:optimizeQuality; fill-rule:evenodd; clip-rule:evenodd"
viewBox="0 0 7010.35 2503.83"
 xmlns:xlink="http://www.w3.org/1999/xlink"
 xmlns:xodm="http://www.corel.com/coreldraw/odm/2003">
 <defs>
  <style type="text/css">
   <![CDATA[
    .fil0 {fill:none}
    .fil1 {fill:#3E4095}
   ]]>
  </style>
 </defs>
 <g id="Plan_x0020_1">
  <metadata id="CorelCorpID_0Corel-Layer"/>
  <g id="_3024477458688">
   <rect class="fil0" x="-0" y="0" width="7010.35" height="2503.83"/>
   <path class="fil1" d="M391.11 1287.28l8.93 9.34c10.93,9.49 9.86,4.95 12.68,20.37 3.89,21.32 2.46,46.46 8.1,70.26 9.38,39.63 7.16,94.79 15.3,113.14 5.65,12.74 6.7,0.73 7.75,25.04 2.07,48.07 -6.47,7.74 6.09,55.55l18.42 142.95c1.1,10.29 -0.03,21.2 0.99,31.07 1.29,12.5 4.48,11.02 5.93,25.38 1.03,10.23 -0.92,20.15 1.68,29.17 2.88,10.01 6.28,9.15 7.73,24.29 9.34,97.2 -4.23,57.13 21.53,169.25 12.93,56.26 22.94,95.51 -22.44,140.93 -34.34,34.38 -46.68,-5.54 -57.8,-39.8 -22.26,-68.55 -31.24,-85.37 -36.06,-156.83 -1.47,-21.83 -7.6,-35.74 -8.8,-53.27 -1.6,-23.54 1.07,-36.52 -3.66,-59.06l-9.37 -312.53c-0.15,-40.77 5.37,-82.82 5.76,-119.46 0.34,-33.23 -4.44,-61.72 5.43,-90.1l11.82 -25.7zm64.31 -426.18c0.03,-10.57 8.12,-21.24 12.69,-29.87 8.88,-16.8 4.21,-17.54 5.59,-39.08 1.57,-24.7 11.79,-50.95 21.9,-65.15 27.36,-0.43 37.98,25.11 43.82,48.22 6.48,25.68 14.91,43.08 20.01,71.07 2.38,13.07 4.46,26.1 9.21,38.65 4.99,13.21 7.47,19.84 9.3,36.96 2.39,22.11 3.76,22.55 8.7,38.93 5.84,19.36 13.35,109.33 17.56,121.41 3.89,11.14 7.69,24.06 10.66,36.25l6.91 37.12c3.42,18.91 -2.89,20.91 4.4,42.91 3.66,11.05 5.45,29.33 6.26,40.81 2.06,29.04 8.35,56.39 8.77,81.64 0.43,25.87 0.87,67.03 5.35,90.22 5.43,28.09 2.22,58.28 5.59,85.09l-2.12 172.67c-3.16,12.91 -4.08,25.39 -8.43,38.45 -19.51,58.49 -10.69,78.25 -20.76,117.82 -5.47,21.47 -22.87,122.07 -40.87,140.15 -5.19,-6.93 -19.83,-53.83 -23.96,-65.54l-6.68 -70.44c0.89,-17.58 6.44,-21.78 2.17,-41.49 -3.6,-16.64 -4.69,-17.96 -4.44,-38.69 1.22,-100.69 -14.61,-104.72 -13.02,-166.98 0.65,-25.32 -32.42,-278.16 -39.79,-316.31 -5.66,-29.26 -9.57,-191.88 -20.94,-243.66 -10.88,-49.52 -6.62,-111.18 -9.98,-124.99 -2.88,-11.85 -7.92,-23.94 -7.89,-36.15zm375.56 85.43c-0.07,-22.34 -2.42,-39.63 -3.95,-60.8 -1.51,-20.77 -1.95,-41.43 -4,-61.83 -1.87,-18.68 -7.41,-37.23 -8.25,-57.44l-16.65 -181.95c-6.48,-24.45 -14.55,-26.09 -10.63,-51.75 1.45,-9.5 4.77,-19.47 6.2,-27.48 4.06,-22.65 4.85,-63.62 19.18,-77.01 22.29,7.2 36.67,62.88 39.06,93.39 1.2,15.34 4.53,19.28 5.87,29.17 1.32,9.75 -0.04,19.8 1.48,30.26 3.94,27.04 13.07,17.89 15.67,50.57 4.47,56.12 3.25,62.25 15.5,117.11 6.16,27.63 18.13,215.31 17.75,248.12 -0.29,25.1 4.29,39.98 4.19,63 -0.1,22.52 -5.93,36.61 -2.66,62.54 6.48,51.34 -2.98,70.84 -7.79,118.84 -3.99,39.76 -0.34,84.46 -16.72,114.05 -11.38,-11.16 -6.7,-35.41 -9.02,-56.33 -5.12,-46.05 -19.67,-101.26 -25.62,-172.96l-19.6 -179.49zm763.17 1076.58c2.02,-21.17 6.09,-43.17 0.52,-61.37 -24.79,-5.78 -21.8,5.31 -33.91,8.96 -8.6,-14.06 -22.89,-80.17 -23.79,-101.99 -1.53,-37.51 -20.68,-65.15 -22.13,-103.86 -1.48,-39.41 -11.78,-27.73 -11.46,-113.28 0.11,-27.77 -4.72,-35.48 -6.64,-56.93 -1.71,-19.04 2.37,-38.48 -6.83,-53.34 -9.21,-14.88 -32.77,-14.37 -50.33,-6.39 -24.99,11.35 -22.16,77.05 -25.6,101.67 -3.41,24.41 -8.68,26.85 -13.42,46.44 -9.5,39.25 -22.72,57.47 -47.23,77.84 -16.02,13.31 -41.57,58.61 -57.14,62.12 -13.62,-66.98 12.51,-139.05 9.22,-203.39 -1.5,-29.21 19.11,-68.53 1.53,-93.78 -12.84,-18.44 -59.6,-19.12 -68.43,20.66 -6.62,29.78 -6.73,63.71 -12.82,96.76 -2.83,15.41 -7.68,30.17 -10.81,44.81 -9.64,44.97 -14.7,80.99 -42.93,121.26 -11.23,16.02 -32.73,51.61 -47.47,60.17 -12.52,-14.59 -12.08,-58.1 -13.66,-76.15 -2.32,-26.62 -9.13,-48.17 -11.9,-75.54 -5.45,-53.78 1.43,-106.96 6.75,-160.67 5.52,-55.77 7.04,-112.48 7.98,-169.92 1.63,-99.94 -75.45,-72.01 -82.66,-46.08 -10.97,39.45 -3.59,124.02 -3.6,165.65 -0.04,94.08 -26.1,207.99 -56.42,290.74 -8.09,22.09 -18.68,38.18 -26.7,60.92 -9.28,26.35 -6.35,43.25 -27.52,56.03 -16.85,-16.92 -8.71,-75.25 -11.93,-102.78 -4.02,-34.43 1.58,-78.42 -0.69,-115.84 -1.14,-18.68 -4.73,-33.25 -4.8,-53.69 -0.07,-19.7 3.83,-33.94 3.49,-53.48 -0.35,-20.43 -3.34,-34.59 0.18,-55.51l24.84 -91.22c6.19,-16.46 10.79,-21.06 13.54,-43.08 4.15,-33.37 11,-66.06 14.66,-99.74 2.53,-23.3 -2.63,-29.69 3.79,-54.95 9.61,-37.79 12.01,-116.41 13.5,-155.98 1.58,-41.95 -24.29,-376.7 -36.59,-425.76l-18.62 -97.27c-3.04,-26.33 1.56,-24.96 -8.45,-48.87 -4.69,-11.18 -8.98,-35.18 -9.28,-48.07 -1.13,-49.37 -8.67,-53.39 -25.03,-90.74 -6.56,-14.99 -13.91,-22.36 -23.77,-33.07 -20.21,-21.98 -66.54,-26.08 -85.76,-5.19 -11.65,12.66 -9.98,24.02 -15.56,42.37 -14.54,47.78 -31.73,96.94 -25.58,148.96l-1.93 107.66c0.5,30.53 20.88,112.31 20.42,154.09 -0.4,36.53 7.25,67.89 10.16,102.15 3.01,35.52 2.29,75.74 6.94,109.52 4.63,33.67 6.83,68.31 11.03,102.64 4.27,34.79 6.81,71.39 11.17,105.54 2.26,17.64 5.85,36.4 6.16,52.12 0.49,24.59 2.95,29.14 6.47,51.16 7.06,44.28 21.48,162.62 22.46,206.98 0.86,38.97 -2.07,69.87 -14.4,101.29 -5.88,14.97 -13.86,24.22 -18.09,37.97l-49.18 124.21c-5.82,12.03 -33.86,64.53 -42.6,70.14 0.15,-12.64 3.08,-14.72 3.55,-28.08 0.38,-10.78 -1.16,-20.28 -0.05,-31.39 4.04,-40.39 6.14,-45.25 14.8,-80.32 4.03,-16.31 3.28,-66.44 5.57,-88.77 10.24,-99.98 -14.77,-173.99 -10.85,-227.25 4.05,-54.97 -10.26,-166.21 -21.7,-221.07l-25.15 -163.8c-22.86,-131.83 -27.08,-222.21 -95.02,-339.6 -9.37,-16.18 -14.2,-20.95 -33.35,-30.18 -15.4,-7.42 -28.41,-12.3 -48.74,-10.55 -17.56,1.51 -31.35,10.31 -43.22,19.62 -17.36,13.62 -11.58,24.76 -15.28,48.88 -1.4,9.12 -5.46,12.68 -7.34,23.34 -1.99,11.29 -1.81,18.14 -4.72,27.13 -19.94,61.56 -11.17,42 -9.74,107.59 0.49,22.35 -6.27,35.02 -8.17,53.72 -4.01,39.58 -0.51,80.13 -3.26,119.38 -14.51,-3.57 -48.03,-8.3 -68.03,3.7 -19.75,11.84 -14.78,36.91 -25.82,60.17 -6.01,12.67 -10.75,16.29 -8.1,36.5 2.8,21.43 4.02,52.98 -1.51,73.9 -3.59,13.58 3.44,87.44 -0.77,119.13 -9.46,71.2 -3.24,23.32 -3.81,74.73 -0.26,23.47 -4.43,64.65 -3.32,81.82 0.01,0.26 6.44,112.48 6.42,113.31 -0.95,50.44 -3.65,109.91 4.4,156.42 6.34,36.6 4.53,62.44 5.4,102.05l12.09 94.29c3.51,14.78 10.01,24.75 12.09,41.11 5.65,44.48 10.48,93.29 26.68,134.91 10.35,26.63 25.03,47.62 39.74,67.85 21.55,29.64 25.62,45.95 68.55,40.82 78.16,-9.34 89.23,-57.36 121.53,-93.4 11.26,-12.56 19.38,-11.54 32.51,-20.87 11.93,-8.48 14.53,-18.78 22.66,-31.2 7.52,-11.48 15,-15.08 24.63,-28.98 24.83,-35.83 34.02,-60.46 39.1,-67.71 7.72,-11 13.72,-20.02 20.36,-33.26 6.59,-13.17 13.23,-24.65 18.14,-35.2 6.15,-13.23 7.28,-25.39 15.31,-37.9 9.98,-15.53 21.46,-35.23 25.73,-56.76 1.62,-8.18 0.84,-15.4 2.51,-23.06 1.84,-8.4 5.19,-12.86 11.24,-15.77 28.93,-13.99 20.35,-17.27 39.2,-37.9 0.3,8.27 -0.09,15.24 1.31,23.22 4.69,26.61 1.81,29.34 2.13,57.66 0.32,28.57 7.4,51.18 6.74,81.74 -0.94,43.25 5.72,131.32 60.94,104.83l52.7 -35.8c21.21,-26.16 30.22,-50.85 40.45,-79.31 5.28,-14.69 13.01,-22.72 20.11,-36.6 8.83,-17.27 0.98,-24.94 6.85,-37.71l17.55 -22.93c8.86,28.18 8.06,68.22 14.28,100.04 6.17,31.59 6.1,64.77 48.65,64.8 34.85,0.02 55.48,-22.13 71.3,-45.97l53.39 -59.6c4.54,4.46 2.51,1.7 6.17,8.65 4.26,8.07 5.58,19.03 11.21,26.6 16.37,21.99 53.97,13.49 76.74,2.2 13.44,-6.67 10.61,-13.7 23.69,-23.91 16.23,-12.66 37.21,-29.87 48.2,-49.28 5.03,-8.85 2.44,-8.34 10.1,-14.93 22.25,-19.17 16.95,-22.05 38.13,-33.64 4.72,41.23 13.63,74.92 20.47,115.68 3.6,21.49 5.76,36.82 15.13,51.46 23.08,36.07 21.9,127.37 89.1,108.45 15.87,-4.46 29.69,-19.64 31.24,-35.89zm4656.76 -347.03c-6.35,4.11 -56.18,27.19 -66.92,30.17 -20.14,5.59 -62.42,-5.77 -78.96,-15.19 -38.54,-21.95 -19.12,-18.81 -75.84,-22.97 -33.59,-2.47 -55.2,-4.46 -87.95,2.95 -26.97,6.11 -144.53,22.43 -163.67,28.85 -33.91,11.37 -136.65,12.08 -180.47,10.93l-238.4 -1.69c-73.46,9.77 -148.3,10.1 -221.58,16.98 -36.06,3.4 -184.56,20.75 -210.74,28.81 -16.41,5.05 -25.09,2.76 -41.94,5.56 -14.75,2.45 -30.08,3.43 -44.83,6.26 -53.66,10.34 -147.08,33.46 -202.46,37.38 -30.92,2.18 -63.02,1.07 -94.28,3.2 -56.14,3.82 -113.38,13.54 -169.88,20.23 -13.67,1.62 -25.76,7.28 -41.53,8.41 -29.76,2.12 -57.33,3.7 -86.08,9.5 -15.45,3.11 -27.06,1.75 -42.27,4.15 -28.71,4.52 -50.62,26.48 -63.21,-9.1 -7.69,-21.72 -10.89,-52.65 -15.26,-78.52 -3.48,-20.62 -15.5,-55.58 -21.45,-76.47 -5.76,-20.19 -12.3,-58.88 -13.84,-81.23 -2.84,-41.04 -16.68,-42.9 -21.51,-74.72 -4.97,-32.79 -6.98,-50.42 -8.03,-85.73 -1.34,-45.55 -11.01,-146.76 -5.54,-184.24 4.17,-28.55 -1.24,-64.75 2.07,-95.31 3.45,-31.81 2.72,-58.42 4.48,-91.97 0.81,-15.39 4.07,-30.69 5.47,-44.84 1.65,-16.71 -1.16,-27.99 1.73,-45.34 9.25,-55.42 15.44,-116.44 17.49,-174.17l19.17 -267.35c3.18,-70.4 0.13,-66.17 10.85,-133.13 2.32,-14.45 -0.19,-31.45 0,-43.2 0.54,-32.69 10.31,-56.92 -11.77,-80.5 -13.99,-14.92 -46.01,-25.17 -65.06,-4.96 -32.58,34.58 -42.99,206.67 -52.4,236.85 -6.26,20.07 -5.34,64.74 -6.88,87.84 -4.14,62.28 -2.28,126.02 1.48,185.99 3.97,63.27 -0.09,128.98 2.41,191.66 1.3,32.51 0.42,65.21 -1.66,97.66 -1.29,20.16 -1.71,23.44 -5.81,40.94 -3.54,15.11 -1.71,27.29 -4.1,43.23 -12.22,81.84 -31.93,155.11 -57.61,230.94 -24.76,73.08 -47.26,142.46 -65.77,222.1 -3.43,14.78 -8.51,23.69 -13,36.94 -4.08,12.05 -4.95,27.35 -8.51,38.84 -3.75,12.08 -8.95,22.55 -11.62,36.39 -10.29,53.46 -17.49,28.85 -32.31,64.56 -22.61,54.51 -61.13,47.57 -59.25,83.17 55,42.49 74.04,-24.59 100.72,-52 8.76,-9.01 13.62,-11.04 21.64,-22.32 18.99,-26.71 33.85,-56.19 42.74,-89.85 8.49,-32.15 13.57,-38.48 24.07,-64 12.46,-30.29 8,-43.16 16,-72.84 7.81,-28.97 30.32,-100.4 53.56,-121.01 7.96,9.96 21.06,91.46 27.03,114.26 6.55,25.02 9.94,34.19 17,54.57 6.4,18.46 6.07,41.91 10.71,59.77 14.02,53.93 14.61,69.56 21.64,119.65 7.13,50.8 46.85,142.48 114.8,121.66 26.09,-8 64.45,-8.45 92.49,-11.49 12.22,-1.32 18.46,-0.14 30.83,-3.2 9.52,-2.35 17.92,-4.62 28.58,-5.23 24.18,-1.4 45.59,2.19 68.94,-3.66 81.08,-20.28 104.87,-15.79 186.48,-21.92 117.34,-8.81 253.74,-31.12 368.92,-54.52 22.12,-4.49 39.93,-4.88 61.66,-7.7 41.68,-5.4 66.71,-18.13 119.91,-21.18 20.39,-1.17 51.34,0.54 68.69,-2.21 61.5,-9.77 85.41,-3.49 128.79,-9.09 11.54,-1.49 18.79,-5.3 30.85,-3.99 11.53,1.25 13.38,4.32 28.83,3.13 23.23,-1.79 36.2,-6.79 61.49,-2.07 44.95,8.38 86.37,-4.18 130.2,1.56 20.24,2.65 42.84,0.92 63.95,1.26 59.85,0.96 135.6,-2.54 189.81,-20.56 8.32,-2.76 80.91,-9.06 119.45,-21.8 60.08,-19.88 91.92,7.06 143.78,18.47 14.13,3.1 11.19,4.58 24.34,9.84 49.87,19.96 121.45,-2.23 166.53,-24.45 27.74,-13.67 32.17,-6.96 61.13,-4.64 37.64,3.01 31.44,-1.72 59.79,-9.86 16.27,-4.67 44.99,-3.02 64.09,-4.95 44.02,-4.45 79.21,-13.59 120.25,-21.52 34.92,-6.75 26.29,-10.72 46.99,-22.63 31.82,-18.31 86.38,-7.54 90.66,-52.23 4.12,-43.15 -57.97,-45.05 -92.24,-31.48 -17.11,6.77 -32.85,14.94 -48.85,20.31 -37,12.42 -76.8,19.32 -114.92,26.7 -27.71,5.37 -31.63,-0.68 -50.57,-11.94 -27.32,-16.25 -64.11,-29.97 -91.93,-46.34 -14.74,-8.67 -28.12,-20.15 -49.56,-21.95 -51.36,-4.32 -74.73,22 -57.05,68.82 9.38,24.83 23.68,19 24.99,42.77zm-3927.61 356.06c-27.63,-34.05 -75.08,-248 -72.23,-295.74 1.77,-29.63 -0.04,-22.61 11.71,-41.37 14.11,5.12 14.21,7.35 22.52,17.06 17.56,20.54 18.72,-0.82 55.21,57.89 27.21,43.78 34.85,29.25 54.33,58.94 23.74,36.19 36.08,43.71 24.09,76.02 -6.7,18.08 -41.22,87.54 -51.41,98.91 -10.84,12.09 -21.9,30.32 -44.23,28.29zm345.65 -489.97c16.13,23.39 18.05,18.79 41.91,46.42 58.58,67.81 62.61,17.45 22.43,-38.17 -21.2,-29.35 -28.41,-48.03 -47.06,-81.79 -14.13,-25.58 -19.15,-35.94 -10.36,-69.52 6.21,-23.71 8.16,-44.12 16.87,-67.16 4.29,-11.35 10.24,-18.86 12.46,-30.7 2.19,-11.66 0.55,-16.57 6.55,-26.3 4.38,-7.1 0.34,-1.45 5.37,-6.19 4.97,4.76 0.65,-0.66 5.23,6.23l13.61 31.86c7.57,18.57 5.02,24.41 5.33,45.81 0.43,29.95 14.53,52.69 16.65,84.9 2.22,33.59 13.24,53.97 18.51,85.09 4.86,28.69 9.82,60.51 13.58,90.02l8.07 95.65c-1.02,26.06 -8.62,62.25 -16.1,86.38 -14.3,46.13 -13.93,71.35 -44.1,113.94 -27.59,38.94 5.64,13.01 -45.43,58.19 -32.12,28.42 -88.97,-18.39 -105.66,-30.87 -51.58,-38.57 -14.17,-5.73 -53.75,-49.99 -24.83,-27.77 -10.58,-39.74 6.25,-69.26l58.77 -149.24c6.45,-30.72 17.75,-50.57 23.16,-81.11 3.49,-19.69 18.89,-56.56 29.77,-68.65 5.53,4.48 12.82,17.07 17.92,24.47zm-50.29 -216.17c-24.7,-49.4 -21.02,-29.58 -31.34,-85.53 -11.19,-60.69 -21.7,-17.77 -30.8,-86.03 -2.4,-18 -9.67,-29.34 -17.02,-42.7 -7.83,-14.23 -8.74,-29.85 -14.24,-45.49 -9.12,-25.91 -16.13,-67.37 -22.99,-93.44 -8.06,-30.67 -10.85,-71.11 -16.83,-102.4 -7.33,-38.33 -15.98,-57.86 -22.74,-93.17 -9.25,-48.34 12.94,-153.85 31.34,-199.72 10.38,3.86 1.84,0.54 9.8,6.14 1.54,1.08 7.4,5.43 9.09,6.82 40.82,33.61 38.39,87.87 69.74,143.8 9,16.05 53.06,154.9 59.05,187.02 10.52,56.4 37.53,151.51 25.19,209.01 -11.35,52.89 -24.19,156.24 -48.24,195.68zm-131.31 622.14c11.51,7.04 30.99,27.52 43.13,38.21 9.19,8.07 15.7,9.92 23.96,16.87 9.13,7.68 12.4,10.98 23.44,17.2 10.63,6 16.41,11.36 26.05,15.25 28.11,11.35 67.81,19.72 98.16,7.27 13.72,-5.63 43.76,-22.53 51.91,-30.25 44.95,-42.64 17.86,-22.27 34.38,-47.61 5.84,-8.96 11.54,-11.8 17.14,-24.12 5.03,-11.07 4.78,-19.37 10.87,-29.67 5.55,-9.39 9.36,-11.68 15.9,-24.99 31.74,-64.55 12.53,-40.39 27.53,-92.73 4.16,-14.54 6.9,-13.82 10.56,-30.24 6.42,-28.81 6.68,-85.31 -1.96,-111.75 -3.83,-11.73 -48.07,-275.59 -63.9,-338.55 -6.43,-25.6 -6.18,-44.33 -13.49,-68.55 -3.79,-12.56 -6.6,-16.11 -9.38,-31.48 -9.62,-53.22 -14.46,-40.42 -18.5,-63.18 -2.17,-12.21 -2.95,-24.35 -4.17,-36.56 -2.54,-25.42 22.79,-83.47 32.55,-120.95 5.69,-21.86 2.62,-52.43 5.57,-74.9l24.29 -137.73c8.42,-30.74 43.76,-190.48 -21.9,-184.45 -18.56,1.71 -34.53,21.85 -38,40.31 -8.92,47.58 -14.87,94.32 -21.32,142.7 -5.83,43.75 -4.04,74.74 -16.4,104.74 -4.09,9.93 -6.76,19.2 -10.59,28.1 -7.95,-7.34 -10.72,-18.7 -14.11,-28 -4.47,-12.25 -5.81,-15.79 -8.36,-29.4 -7.5,-40.2 -37.28,-135.27 -52.34,-168.6 -19.48,-43.08 -16.24,-51.78 -46.93,-100.47 -16.8,-26.64 -40.26,-62.87 -72.77,-73.02 -56.89,-17.78 -72.53,3.39 -91.63,44.33 -13.49,28.92 -22.26,87.02 -25.57,119.97 -6.02,235.55 61.29,467.2 162.39,678.58 7.03,14.67 27.92,64.92 29.05,80.56 1.81,24.92 -7.46,35.08 -13.03,57.91l-32.44 112.49c-6.62,16.89 -11.46,39.18 -18.71,56.4 -12.58,29.85 -52.27,125.86 -69.67,145.03 -7.37,-6.97 -15.06,-9.07 -21.16,-20.67 -7.01,-13.31 -5.07,-14.94 -14.68,-26.38l-41.18 -40.7c-34.53,-26.89 -19.92,-22.47 -41.04,-40.78 -214.72,-186.12 -100.22,318.85 -68.95,383.59 28.41,58.84 57.09,38.66 74.3,31.4 42.95,-18.12 31.48,-3.37 75.39,-47.84 27.45,-27.8 30.28,-78.2 65.65,-97.33zm536.67 66.69c-13.76,-15.63 -16.44,-56.09 -13.18,-82.87 17.3,6.25 41.34,14.18 38.58,36.74 -1.2,9.75 -20.48,42.88 -25.4,46.12zm53.04 -138.67c-47.89,12.73 -60.82,-71.75 -43.04,-96.36l29.76 41.12c10.61,16.26 16.19,30.52 13.28,55.24zm-151.14 51.34c4.76,14.37 8.74,62.05 11.85,82.41 7.72,50.59 37.27,89.74 88.76,93.83 22.21,1.76 33.81,-16.89 42,-25.2 33.11,-33.64 48.8,-49.04 59.81,-101.14 5.51,-26.1 6.41,-41.97 22.26,-68.9 7.15,-12.15 9.69,-15.72 19.13,-24.71 31.23,-29.72 25.55,-42.56 44.71,-45.18 17.1,24.35 9.94,114.2 63.96,176.91 26.28,30.51 12.6,50.33 71.54,51.15 25.86,0.36 25.47,-7.76 42.97,-16.57 12.59,-6.34 30.54,-10.52 44.13,-15.76 7.72,-23.36 2.13,-62.15 32.35,-62.61 21.44,49.79 16.11,85.88 81.83,83.48 24.32,-0.89 39.94,-20.63 47.57,-38 18.28,-41.67 -34.51,-38.62 -37.03,-39.33 -56.38,-114.49 5.63,-206.15 -42.32,-235.14 -18.55,-11.22 -40.12,-6.38 -50.7,8.82 -9.58,13.77 -9.9,40.61 -10.53,60.67 -0.87,27.71 -30.61,88.84 -39.17,99.65 -17.09,-0.76 -25.25,-17.93 -40.78,-24.51 -25.21,-10.68 -32.96,5.19 -52.49,2.19 -7.31,-19.29 -5.05,-52.27 -22.24,-103.52 -5.5,-16.42 -6.85,-38.29 -13.12,-49.69 -6.03,-10.97 -17.34,-25.51 -27.26,-31.58 -42.98,-26.37 -67.59,-7.77 -82.6,28.98l-1.86 4.18c-2.39,6.22 -1.4,4.12 -3.48,11.72l-16.89 40.59c-9.11,15.27 -8.85,14.09 -21.71,17.08 -57.26,-95.24 -42.78,-52.62 -81.33,-103.53 -13.75,-18.16 -40.09,-32.23 -66.02,-12.96 -15.9,11.81 -27.68,34.21 -29.14,62.26 -9.71,6.58 -22.69,7.57 -31.39,15.66 -11.19,10.4 -26.6,69.51 -43.2,89.16 -14.63,17.33 -20.8,33.79 -31.13,57.07 -3.61,8.13 -3.11,8.65 -5.18,16.98 -4.08,16.48 -16.32,35.14 12.69,42.32 8.86,-5.55 5.13,-8.28 13.48,-19.24 51.34,-0.5 21.25,-5.19 50.53,-27.55zm750.66 -508.87c17.37,-1.16 78.22,10.8 63.43,-43.28 -12.5,-45.63 -109.46,-26.46 -144.84,14.82 -15.31,17.87 -34.3,36.42 -25.66,72.63 8.8,36.83 50.66,59.43 79.4,81.66 51.47,39.8 101.75,13.41 60.53,-25.94 -5.73,-5.47 -9.91,-7.37 -15.67,-12.69 -9.65,-8.91 -24.33,-28.35 -37.29,-37.6 1.96,-20.82 12,-35.81 20.09,-49.6zm-2289.64 -451.42c1.14,-38.36 -16.32,-16.29 -8.86,-47.44 2.62,-10.93 -0.5,-16.42 -4.03,-25.04 -3.41,-8.31 -3.53,-13.22 -9.66,-21.46 -23.5,-31.55 -127.74,-34.36 -92.73,42.26 9.93,21.72 48.96,43.15 70.89,55.4 21.3,11.9 27.66,7.12 44.39,-3.72z"/>
  </g>
 </g>
</svg>
